<?xml version="1.0" encoding="UTF-8" standalone="no"?>
<svg
   xmlns:dc="http://purl.org/dc/elements/1.1/"
   xmlns:cc="http://creativecommons.org/ns#"
   xmlns:rdf="http://www.w3.org/1999/02/22-rdf-syntax-ns#"
   xmlns:svg="http://www.w3.org/2000/svg"
   xmlns="http://www.w3.org/2000/svg"
   xmlns:sodipodi="http://sodipodi.sourceforge.net/DTD/sodipodi-0.dtd"
   xmlns:inkscape="http://www.inkscape.org/namespaces/inkscape"
   enable-background="new 0 0 32 32"
   height="32px"
   id="Layer_1"
   version="1.1"
   viewBox="0 0 32 32"
   width="32px"
   xml:space="preserve"
   sodipodi:docname="camera.svg"
   inkscape:version="1.0.2 (e86c870879, 2021-01-15, custom)"><metadata
     id="metadata14"><rdf:RDF><cc:Work
         rdf:about=""><dc:format>image/svg+xml</dc:format><dc:type
           rdf:resource="http://purl.org/dc/dcmitype/StillImage" /></cc:Work></rdf:RDF></metadata><defs
     id="defs12" /><sodipodi:namedview
     pagecolor="#ffffff"
     bordercolor="#666666"
     borderopacity="1"
     objecttolerance="10"
     gridtolerance="10"
     guidetolerance="10"
     inkscape:pageopacity="0"
     inkscape:pageshadow="2"
     inkscape:window-width="1648"
     inkscape:window-height="912"
     id="namedview10"
     showgrid="false"
     inkscape:zoom="4.9038365"
     inkscape:cx="-2.1773049"
     inkscape:cy="53.597474"
     inkscape:window-x="0"
     inkscape:window-y="0"
     inkscape:window-maximized="0"
     inkscape:current-layer="Layer_1" /><g
     id="camera"
     style="fill:#ffffff"><path
       clip-rule="evenodd"
       d="M16,10.001c-4.419,0-8,3.581-8,8c0,4.418,3.581,8,8,8   c4.418,0,8-3.582,8-8C24,13.583,20.418,10.001,16,10.001z M20.555,21.906c-2.156,2.516-5.943,2.807-8.459,0.65   c-2.517-2.156-2.807-5.944-0.65-8.459c2.155-2.517,5.943-2.807,8.459-0.65C22.42,15.602,22.711,19.391,20.555,21.906z"
       fill="#333333"
       fill-rule="evenodd"
       id="path2"
       style="fill:#ffffff" /><path
       clip-rule="evenodd"
       d="M16,14.001c-2.209,0-3.999,1.791-4,3.999v0.002   c0,0.275,0.224,0.5,0.5,0.5s0.5-0.225,0.5-0.5V18c0.001-1.656,1.343-2.999,3-2.999c0.276,0,0.5-0.224,0.5-0.5   S16.276,14.001,16,14.001z"
       fill="#333333"
       fill-rule="evenodd"
       id="path4"
       style="fill:#ffffff" /><path
       clip-rule="evenodd"
       d="M29.492,9.042l-4.334-0.723l-1.373-3.434   C23.326,3.74,22.232,3,21,3H11C9.768,3,8.674,3.74,8.214,4.886L6.842,8.319L2.509,9.042C1.055,9.283,0,10.527,0,12v15   c0,1.654,1.346,3,3,3h26c1.654,0,3-1.346,3-3V12C32,10.527,30.945,9.283,29.492,9.042z M30,27c0,0.553-0.447,1-1,1H3   c-0.553,0-1-0.447-1-1V12c0-0.489,0.354-0.906,0.836-0.986l5.444-0.907l1.791-4.478C10.224,5.25,10.591,5,11,5h10   c0.408,0,0.775,0.249,0.928,0.629l1.791,4.478l5.445,0.907C29.646,11.094,30,11.511,30,12V27z"
       fill="#333333"
       fill-rule="evenodd"
       id="path6"
       style="fill:#ffffff" /></g></svg>
