<?xml version="1.0" encoding="UTF-8" standalone="no"?>
<svg
   xmlns:dc="http://purl.org/dc/elements/1.1/"
   xmlns:cc="http://creativecommons.org/ns#"
   xmlns:rdf="http://www.w3.org/1999/02/22-rdf-syntax-ns#"
   xmlns:svg="http://www.w3.org/2000/svg"
   xmlns="http://www.w3.org/2000/svg"
   xmlns:sodipodi="http://sodipodi.sourceforge.net/DTD/sodipodi-0.dtd"
   xmlns:inkscape="http://www.inkscape.org/namespaces/inkscape"
   version="1.1"
   x="0px"
   y="0px"
   viewBox="0 0 1000 1000"
   enable-background="new 0 0 1000 1000"
   xml:space="preserve"
   id="svg8"
   sodipodi:docname="reload.svg"
   inkscape:version="1.0.1 (3bc2e813f5, 2020-09-07)"><defs
   id="defs12" /><sodipodi:namedview
   pagecolor="#ffffff"
   bordercolor="#666666"
   borderopacity="1"
   objecttolerance="10"
   gridtolerance="10"
   guidetolerance="10"
   inkscape:pageopacity="0"
   inkscape:pageshadow="2"
   inkscape:window-width="1555"
   inkscape:window-height="1029"
   id="namedview10"
   showgrid="false"
   inkscape:snap-nodes="false"
   inkscape:zoom="0.884"
   inkscape:cx="502.26244"
   inkscape:cy="500"
   inkscape:window-x="0"
   inkscape:window-y="0"
   inkscape:window-maximized="0"
   inkscape:current-layer="svg8" />
<metadata
   id="metadata2"> Svg Vector Icons : http://www.onlinewebfonts.com/icon <rdf:RDF><cc:Work
     rdf:about=""><dc:format>image/svg+xml</dc:format><dc:type
       rdf:resource="http://purl.org/dc/dcmitype/StillImage" /></cc:Work></rdf:RDF></metadata>
<g
   id="g6"
   style="fill:#ffffff"><path
     d="M778.8,222.6l-88.6,88.6c-48.1-48.1-114.6-77.8-187.9-77.8c-146.8,0-265.8,119.1-265.8,265.9c0,0.1,0-0.1,0-0.1l103.3,0.1L174.7,678.2L10,499.2h101.1l0,0c0-216,175.1-391.2,391.1-391.2C610.3,108,708,151.8,778.8,222.6z M990,500.8L824.3,323.1L660.3,500.8h103.3c0,0.1,0-0.1,0-0.1c0,146.9-119,265.9-265.8,265.9c-73.4,0-139.9-29.8-187.9-77.8l-88.6,88.6C291.9,848.2,389.7,892,497.7,892c216,0,391.1-175.2,391.1-391.2l0,0L990,500.8L990,500.8z"
     id="path4"
     style="fill:#ffffff" /></g>
</svg>
