<?xml version="1.0" encoding="UTF-8" standalone="no"?>
<svg
   xmlns:dc="http://purl.org/dc/elements/1.1/"
   xmlns:cc="http://creativecommons.org/ns#"
   xmlns:rdf="http://www.w3.org/1999/02/22-rdf-syntax-ns#"
   xmlns:svg="http://www.w3.org/2000/svg"
   xmlns="http://www.w3.org/2000/svg"
   xmlns:sodipodi="http://sodipodi.sourceforge.net/DTD/sodipodi-0.dtd"
   xmlns:inkscape="http://www.inkscape.org/namespaces/inkscape"
   data-name="Layer 1"
   viewBox="0 0 24 24"
   version="1.1"
   id="svg4"
   sodipodi:docname="scanner.svg"
   inkscape:version="1.0.2 (e86c870879, 2021-01-15, custom)">
  <metadata
     id="metadata10">
    <rdf:RDF>
      <cc:Work
         rdf:about="">
        <dc:format>image/svg+xml</dc:format>
        <dc:type
           rdf:resource="http://purl.org/dc/dcmitype/StillImage" />
      </cc:Work>
    </rdf:RDF>
  </metadata>
  <defs
     id="defs8" />
  <sodipodi:namedview
     pagecolor="#ffffff"
     bordercolor="#666666"
     borderopacity="1"
     objecttolerance="10"
     gridtolerance="10"
     guidetolerance="10"
     inkscape:pageopacity="0"
     inkscape:pageshadow="2"
     inkscape:window-width="1309"
     inkscape:window-height="809"
     id="namedview6"
     showgrid="false"
     inkscape:zoom="37.708333"
     inkscape:cx="12"
     inkscape:cy="12"
     inkscape:window-x="0"
     inkscape:window-y="0"
     inkscape:window-maximized="0"
     inkscape:current-layer="svg4" />
  <path
     d="M8,21H4a1,1,0,0,1-1-1V16a1,1,0,0,0-2,0v4a3,3,0,0,0,3,3H8a1,1,0,0,0,0-2Zm14-6a1,1,0,0,0-1,1v4a1,1,0,0,1-1,1H16a1,1,0,0,0,0,2h4a3,3,0,0,0,3-3V16A1,1,0,0,0,22,15ZM20,1H16a1,1,0,0,0,0,2h4a1,1,0,0,1,1,1V8a1,1,0,0,0,2,0V4A3,3,0,0,0,20,1ZM2,9A1,1,0,0,0,3,8V4A1,1,0,0,1,4,3H8A1,1,0,0,0,8,1H4A3,3,0,0,0,1,4V8A1,1,0,0,0,2,9Zm8-4H6A1,1,0,0,0,5,6v4a1,1,0,0,0,1,1h4a1,1,0,0,0,1-1V6A1,1,0,0,0,10,5ZM9,9H7V7H9Zm5,2h4a1,1,0,0,0,1-1V6a1,1,0,0,0-1-1H14a1,1,0,0,0-1,1v4A1,1,0,0,0,14,11Zm1-4h2V9H15Zm-5,6H6a1,1,0,0,0-1,1v4a1,1,0,0,0,1,1h4a1,1,0,0,0,1-1V14A1,1,0,0,0,10,13ZM9,17H7V15H9Zm5-1a1,1,0,0,0,1-1,1,1,0,0,0,0-2H14a1,1,0,0,0-1,1v1A1,1,0,0,0,14,16Zm4-3a1,1,0,0,0-1,1v3a1,1,0,0,0,0,2h1a1,1,0,0,0,1-1V14A1,1,0,0,0,18,13Zm-4,4a1,1,0,1,0,1,1A1,1,0,0,0,14,17Z"
     id="path2"
     style="fill:#ffffff" />
</svg>
