<?xml version="1.0" encoding="UTF-8" standalone="no"?>
<svg
   xmlns:dc="http://purl.org/dc/elements/1.1/"
   xmlns:cc="http://creativecommons.org/ns#"
   xmlns:rdf="http://www.w3.org/1999/02/22-rdf-syntax-ns#"
   xmlns:svg="http://www.w3.org/2000/svg"
   xmlns="http://www.w3.org/2000/svg"
   xmlns:sodipodi="http://sodipodi.sourceforge.net/DTD/sodipodi-0.dtd"
   xmlns:inkscape="http://www.inkscape.org/namespaces/inkscape"
   version="1.1"
   id="Capa_1"
   x="0px"
   y="0px"
   width="507.45px"
   height="507.45px"
   viewBox="0 0 507.45 507.45"
   style="enable-background:new 0 0 507.45 507.45;"
   xml:space="preserve"
   sodipodi:docname="share.svg"
   inkscape:version="1.0.1 (3bc2e813f5, 2020-09-07)"><metadata
   id="metadata42"><rdf:RDF><cc:Work
       rdf:about=""><dc:format>image/svg+xml</dc:format><dc:type
         rdf:resource="http://purl.org/dc/dcmitype/StillImage" /></cc:Work></rdf:RDF></metadata><defs
   id="defs40" /><sodipodi:namedview
   pagecolor="#ffffff"
   bordercolor="#666666"
   borderopacity="1"
   objecttolerance="10"
   gridtolerance="10"
   guidetolerance="10"
   inkscape:pageopacity="0"
   inkscape:pageshadow="2"
   inkscape:window-width="1311"
   inkscape:window-height="996"
   id="namedview38"
   showgrid="false"
   inkscape:zoom="0.91930319"
   inkscape:cx="243.77254"
   inkscape:cy="265.54389"
   inkscape:window-x="0"
   inkscape:window-y="0"
   inkscape:window-maximized="0"
   inkscape:current-layer="Capa_1" />
<g
   id="g5"
   style="fill:#ffffff">
	<g
   id="share-alt"
   style="fill:#ffffff">
		<path
   d="M408,178.5c-20.4,0-38.25,7.65-51,20.4L175.95,94.35c2.55-5.1,2.55-12.75,2.55-17.85C178.5,33.15,145.35,0,102,0    S25.5,33.15,25.5,76.5S58.65,153,102,153c20.4,0,38.25-7.65,51-20.4l181.05,104.55c-2.55,5.1-2.55,12.75-2.55,17.85    c0,5.1,0,12.75,2.55,17.85L153,379.95c-12.75-12.75-30.6-20.4-51-20.4c-40.8,0-73.95,33.15-73.95,73.95S61.2,507.45,102,507.45    s73.95-33.15,73.95-73.95c0-5.1,0-10.2-2.55-17.85L354.45,308.55c12.75,12.75,30.6,20.4,51,20.4c43.35,0,76.5-33.15,76.5-76.5    C481.95,209.1,451.35,178.5,408,178.5z"
   id="path2"
   style="fill:#ffffff" />
	</g>
</g>
<g
   id="g7"
   style="fill:#ffffff">
</g>
<g
   id="g9"
   style="fill:#ffffff">
</g>
<g
   id="g11"
   style="fill:#ffffff">
</g>
<g
   id="g13"
   style="fill:#ffffff">
</g>
<g
   id="g15"
   style="fill:#ffffff">
</g>
<g
   id="g17"
   style="fill:#ffffff">
</g>
<g
   id="g19"
   style="fill:#ffffff">
</g>
<g
   id="g21"
   style="fill:#ffffff">
</g>
<g
   id="g23"
   style="fill:#ffffff">
</g>
<g
   id="g25"
   style="fill:#ffffff">
</g>
<g
   id="g27"
   style="fill:#ffffff">
</g>
<g
   id="g29"
   style="fill:#ffffff">
</g>
<g
   id="g31"
   style="fill:#ffffff">
</g>
<g
   id="g33"
   style="fill:#ffffff">
</g>
<g
   id="g35"
   style="fill:#ffffff">
</g>
</svg>
