<?xml version="1.0" encoding="UTF-8"?>
<svg enable-background="new 0 0 1000 1000" version="1.1" viewBox="0 0 1e3 1e3" xml:space="preserve" xmlns="http://www.w3.org/2000/svg" xmlns:cc="http://creativecommons.org/ns#" xmlns:dc="http://purl.org/dc/elements/1.1/" xmlns:rdf="http://www.w3.org/1999/02/22-rdf-syntax-ns#">
<metadata> Svg Vector Icons : http://www.onlinewebfonts.com/icon <rdf:RDF><cc:Work rdf:about=""><dc:format>image/svg+xml</dc:format><dc:type rdf:resource="http://purl.org/dc/dcmitype/StillImage"/><dc:title/></cc:Work></rdf:RDF></metadata>
<g fill="#fff"><g transform="translate(0 511) scale(.1 -.1)" fill="#fff"><path d="m5893.2 4112.9c-122.5-63.8-229.7-224.6-229.7-352.2 0-94.4 102.1-280.7 186.3-342 63.8-48.5 117.4-53.6 454.3-61.2l380.3-7.7v-6477.1l-380.3-7.6c-336.9-7.7-390.5-12.8-454.3-61.2-84.2-61.3-186.3-247.6-186.3-342 0-127.6 107.2-288.4 229.7-352.2l114.8-58.7 1128 7.6c1097.4 7.7 1128 10.2 1199.5 61.2 186.3 137.8 239.9 357.3 132.7 546.2-97 171-194 204.2-607.4 204.2h-359.8v6482.2h367.5c336.9 0 372.6 5.1 451.7 58.7 265.4 178.6 270.5 500.2 15.3 691.6-71.5 51-102.1 53.6-1199.5 61.3l-1128 5.1-114.8-56.2z"/><path d="m373.1 2321.4c-125.1-45.9-163.3-81.7-224.6-196.5-45.9-94.4-48.5-171-48.5-2018.7v-1921.7l58.7-99.6c30.6-56.1 97-125 145.5-153.1 89.3-53.6 114.8-53.6 3057.4-61.2l2965.5-5.1v4491.6h-2927.3c-2383.6-2.5-2947.6-7.6-3026.7-35.7zm2276.4-997.9c84.2-40.8 58.7 10.2 576.8-1158.6 273.1-612.5 395.6-918.8 395.6-982.6s-20.4-114.8-74-173.5c-63.8-71.5-91.9-84.2-188.9-84.2-148 0-227.1 68.9-303.7 273.1l-58.7 148h-997.8l-45.9-130.1c-25.5-71.5-74-163.3-109.7-201.6-107.2-127.6-293.5-125.1-413.4 2.5-107.2 117.4-84.2 188.9 398.1 1253.1 387.9 857.5 461.9 1003 528.3 1043.8 94.3 58.6 196.4 61.2 293.3 10.1z"/><path d="m2371.4 208.2c-74-173.5-137.8-329.2-145.5-344.5-10.2-25.5 53.6-33.2 270.5-33.2 155.7 0 283.3 10.2 283.3 23 0 20.4-252.7 645.7-268 661-2.5 5.1-66.3-132.7-140.3-306.3z"/><path d="m7883.8 111.3v-2248.4l862.6 7.7c814.1 7.7 865.2 10.2 949.4 61.2 48.5 28.1 114.8 97 145.5 153.1l58.7 99.6v3853.6l-58.7 99.5c-30.6 56.1-97 125-145.5 153.1-84.2 51-135.3 53.6-949.4 61.2l-862.6 7.7v-2248.3z"/></g></g>
</svg>
