<svg id="svg" version="1.1" xmlns="http://www.w3.org/2000/svg" xmlns:xlink="http://www.w3.org/1999/xlink" width="400" height="400.9852216748768" viewBox="0, 0, 400,400.9852216748768"><g id="svgg"><path id="path0" d="M191.000 2.000 C 190.852 2.240,188.196 2.400,184.376 2.400 C 178.975 2.400,178.000 2.492,178.000 3.000 C 178.000 3.493,177.289 3.600,174.000 3.600 C 171.600 3.600,170.000 3.760,170.000 4.000 C 170.000 4.222,168.933 4.400,167.600 4.400 C 165.733 4.400,165.200 4.533,165.200 5.000 C 165.200 5.472,164.644 5.600,162.600 5.600 C 161.133 5.600,160.000 5.774,160.000 6.000 C 160.000 6.222,158.944 6.400,157.633 6.400 C 156.190 6.400,155.206 6.582,155.112 6.865 C 155.024 7.128,154.020 7.363,152.798 7.406 C 151.593 7.448,150.572 7.685,150.486 7.941 C 150.402 8.193,149.718 8.400,148.967 8.400 C 148.215 8.400,147.600 8.580,147.600 8.800 C 147.600 9.020,146.880 9.200,146.000 9.200 C 144.844 9.200,144.400 9.367,144.400 9.800 C 144.400 10.253,143.911 10.400,142.400 10.400 C 141.300 10.400,140.400 10.580,140.400 10.800 C 140.400 11.020,139.770 11.200,139.000 11.200 C 138.022 11.200,137.600 11.381,137.600 11.800 C 137.600 12.233,137.156 12.400,136.000 12.400 C 135.120 12.400,134.400 12.580,134.400 12.800 C 134.400 13.020,133.950 13.200,133.400 13.200 C 132.778 13.200,132.400 13.427,132.400 13.800 C 132.400 14.219,131.978 14.400,131.000 14.400 C 130.230 14.400,129.600 14.580,129.600 14.800 C 129.600 15.020,128.970 15.200,128.200 15.200 C 127.222 15.200,126.800 15.381,126.800 15.800 C 126.800 16.173,126.422 16.400,125.800 16.400 C 125.250 16.400,124.800 16.580,124.800 16.800 C 124.800 17.020,124.363 17.200,123.829 17.200 C 123.294 17.200,122.587 17.470,122.257 17.800 C 121.927 18.130,121.295 18.400,120.852 18.400 C 120.409 18.400,119.936 18.580,119.800 18.800 C 119.664 19.020,119.133 19.200,118.619 19.200 C 118.106 19.200,117.578 19.481,117.446 19.825 C 117.314 20.169,117.039 20.348,116.835 20.222 C 116.631 20.096,116.193 20.264,115.861 20.596 C 115.529 20.928,114.985 21.200,114.652 21.200 C 114.319 21.200,113.936 21.380,113.800 21.600 C 113.664 21.820,113.203 22.000,112.776 22.000 C 112.349 22.000,112.000 22.270,112.000 22.600 C 112.000 22.973,111.622 23.200,111.000 23.200 C 110.450 23.200,110.000 23.380,110.000 23.600 C 110.000 23.820,109.550 24.000,109.000 24.000 C 108.378 24.000,108.000 24.227,108.000 24.600 C 108.000 24.973,107.622 25.200,107.000 25.200 C 106.450 25.200,106.000 25.380,106.000 25.600 C 106.000 25.820,105.550 26.000,105.000 26.000 C 104.378 26.000,104.000 26.227,104.000 26.600 C 104.000 26.930,103.659 27.200,103.242 27.200 C 102.825 27.200,102.060 27.647,101.542 28.193 C 101.024 28.739,100.285 29.189,99.900 29.193 C 99.515 29.197,99.200 29.380,99.200 29.600 C 99.200 29.820,98.750 30.000,98.200 30.000 C 97.578 30.000,97.200 30.227,97.200 30.600 C 97.200 30.930,96.930 31.200,96.600 31.200 C 96.270 31.200,96.000 31.380,96.000 31.600 C 96.000 31.820,95.550 32.000,95.000 32.000 C 94.333 32.000,94.000 32.222,94.000 32.667 C 94.000 33.033,93.885 33.218,93.744 33.077 C 93.445 32.779,91.200 34.022,91.200 34.486 C 91.200 34.659,90.834 34.800,90.387 34.800 C 89.941 34.800,89.471 35.070,89.345 35.400 C 89.218 35.730,88.941 36.000,88.729 36.000 C 88.210 36.000,87.200 37.038,87.200 37.571 C 87.200 37.807,86.827 38.000,86.371 38.000 C 85.486 38.000,84.400 38.866,84.400 39.571 C 84.400 39.807,83.950 40.000,83.400 40.000 C 82.850 40.000,82.400 40.180,82.400 40.400 C 82.400 40.620,82.130 40.800,81.800 40.800 C 81.470 40.800,81.200 40.993,81.200 41.229 C 81.200 41.934,80.114 42.800,79.229 42.800 C 78.759 42.800,78.400 43.060,78.400 43.400 C 78.400 43.730,78.207 44.000,77.971 44.000 C 77.407 44.000,76.400 45.022,76.400 45.595 C 76.400 45.844,76.219 45.935,75.997 45.798 C 75.776 45.661,75.486 45.831,75.354 46.175 C 75.222 46.519,74.774 46.800,74.357 46.800 C 73.941 46.800,73.600 46.980,73.600 47.200 C 73.600 47.420,73.330 47.600,73.000 47.600 C 72.670 47.600,72.400 47.780,72.400 48.000 C 72.400 48.521,69.321 51.600,68.800 51.600 C 68.580 51.600,68.400 51.870,68.400 52.200 C 68.400 52.540,68.041 52.800,67.571 52.800 C 66.686 52.800,65.600 53.666,65.600 54.371 C 65.600 54.607,65.407 54.800,65.171 54.800 C 64.618 54.800,63.600 55.818,63.600 56.371 C 63.600 56.607,63.416 56.800,63.191 56.800 C 62.725 56.800,58.800 60.811,58.800 61.287 C 58.800 61.459,58.607 61.600,58.371 61.600 C 57.818 61.600,56.800 62.618,56.800 63.171 C 56.800 63.407,56.607 63.600,56.371 63.600 C 55.818 63.600,54.800 64.618,54.800 65.171 C 54.800 65.407,54.607 65.600,54.371 65.600 C 53.666 65.600,52.800 66.686,52.800 67.571 C 52.800 68.041,52.540 68.400,52.200 68.400 C 51.870 68.400,51.600 68.593,51.600 68.829 C 51.600 69.382,50.582 70.400,50.029 70.400 C 49.793 70.400,49.596 70.625,49.591 70.900 C 49.587 71.175,48.957 71.938,48.191 72.596 C 47.426 73.254,46.800 74.109,46.800 74.496 C 46.800 74.883,46.620 75.200,46.400 75.200 C 46.180 75.200,46.000 75.470,46.000 75.800 C 46.000 76.130,45.807 76.400,45.571 76.400 C 44.866 76.400,44.000 77.486,44.000 78.371 C 44.000 78.841,43.740 79.200,43.400 79.200 C 43.070 79.200,42.800 79.393,42.800 79.629 C 42.800 80.132,41.803 81.199,41.329 81.203 C 40.947 81.207,40.000 83.115,40.000 83.880 C 40.000 84.166,39.807 84.400,39.571 84.400 C 38.866 84.400,38.000 85.486,38.000 86.371 C 38.000 86.827,37.807 87.200,37.571 87.200 C 36.879 87.200,36.000 88.279,36.000 89.129 C 36.000 89.561,35.719 90.022,35.375 90.154 C 35.031 90.286,34.861 90.576,34.998 90.797 C 35.135 91.019,34.967 91.200,34.624 91.200 C 34.259 91.200,34.000 91.545,34.000 92.029 C 34.000 92.914,33.134 94.000,32.429 94.000 C 32.193 94.000,32.000 94.450,32.000 95.000 C 32.000 95.550,31.820 96.000,31.600 96.000 C 31.380 96.000,31.200 96.193,31.200 96.429 C 31.200 96.664,30.975 97.108,30.700 97.415 C 29.423 98.838,29.200 99.221,29.200 99.983 C 29.200 100.443,28.937 100.800,28.600 100.800 C 28.227 100.800,28.000 101.178,28.000 101.800 C 28.000 102.350,27.820 102.800,27.600 102.800 C 27.380 102.800,27.200 103.250,27.200 103.800 C 27.200 104.422,26.973 104.800,26.600 104.800 C 26.270 104.800,26.000 105.070,26.000 105.400 C 26.000 105.730,25.820 106.000,25.600 106.000 C 25.380 106.000,25.200 106.450,25.200 107.000 C 25.200 107.622,24.973 108.000,24.600 108.000 C 24.227 108.000,24.000 108.378,24.000 109.000 C 24.000 109.550,23.820 110.000,23.600 110.000 C 23.380 110.000,23.200 110.349,23.200 110.776 C 23.200 111.203,23.031 111.657,22.825 111.784 C 22.333 112.088,21.200 114.374,21.200 115.061 C 21.200 115.358,21.020 115.600,20.800 115.600 C 20.580 115.600,20.400 116.127,20.400 116.771 C 20.400 117.416,20.130 118.213,19.800 118.543 C 19.470 118.873,19.200 119.516,19.200 119.971 C 19.200 120.427,19.020 120.800,18.800 120.800 C 18.580 120.800,18.400 121.250,18.400 121.800 C 18.400 122.422,18.173 122.800,17.800 122.800 C 17.431 122.800,17.200 123.175,17.200 123.776 C 17.200 124.313,17.020 124.864,16.800 125.000 C 16.580 125.136,16.400 125.777,16.400 126.424 C 16.400 127.203,16.197 127.600,15.800 127.600 C 15.381 127.600,15.200 128.022,15.200 129.000 C 15.200 129.770,15.020 130.400,14.800 130.400 C 14.580 130.400,14.400 131.120,14.400 132.000 C 14.400 133.156,14.233 133.600,13.800 133.600 C 13.381 133.600,13.200 134.022,13.200 135.000 C 13.200 135.770,13.020 136.400,12.800 136.400 C 12.580 136.400,12.400 136.831,12.400 137.357 C 12.400 137.884,12.130 138.418,11.800 138.545 C 11.453 138.678,11.200 139.276,11.200 139.964 C 11.200 140.618,11.020 141.264,10.800 141.400 C 10.580 141.536,10.400 142.427,10.400 143.381 C 10.400 144.553,10.206 145.189,9.800 145.345 C 9.389 145.502,9.200 146.145,9.200 147.387 C 9.200 148.384,9.020 149.200,8.800 149.200 C 8.580 149.200,8.400 150.085,8.400 151.167 C 8.400 152.248,8.202 153.199,7.961 153.280 C 7.719 153.360,7.426 154.275,7.309 155.313 C 7.192 156.351,6.939 157.200,6.748 157.200 C 6.557 157.200,6.400 158.100,6.400 159.200 C 6.400 160.300,6.220 161.200,6.000 161.200 C 5.771 161.200,5.600 162.404,5.600 164.013 C 5.600 166.144,5.455 166.881,5.000 167.055 C 4.526 167.237,4.400 168.072,4.400 171.043 C 4.400 173.281,4.238 174.800,4.000 174.800 C 3.765 174.800,3.600 176.204,3.600 178.213 C 3.600 180.877,3.468 181.676,3.000 181.855 C 2.093 182.203,2.093 217.507,3.000 217.855 C 3.467 218.035,3.600 218.825,3.600 221.419 C 3.600 223.253,3.780 224.864,4.000 225.000 C 4.221 225.137,4.400 226.937,4.400 229.024 C 4.400 232.114,4.509 232.800,5.000 232.800 C 5.480 232.800,5.600 233.400,5.600 235.800 C 5.600 237.533,5.769 238.800,6.000 238.800 C 6.220 238.800,6.400 239.685,6.400 240.767 C 6.400 241.848,6.560 242.793,6.755 242.867 C 6.950 242.940,7.221 243.810,7.357 244.800 C 7.493 245.790,7.783 246.660,8.002 246.733 C 8.221 246.807,8.400 247.752,8.400 248.833 C 8.400 249.915,8.580 250.800,8.800 250.800 C 9.020 250.800,9.200 251.610,9.200 252.600 C 9.200 253.933,9.356 254.400,9.800 254.400 C 10.253 254.400,10.400 254.889,10.400 256.400 C 10.400 257.500,10.580 258.400,10.800 258.400 C 11.020 258.400,11.200 259.011,11.200 259.757 C 11.200 260.595,11.430 261.203,11.800 261.345 C 12.130 261.471,12.400 262.031,12.400 262.587 C 12.400 263.144,12.580 263.600,12.800 263.600 C 13.020 263.600,13.200 264.230,13.200 265.000 C 13.200 265.978,13.381 266.400,13.800 266.400 C 14.219 266.400,14.400 266.822,14.400 267.800 C 14.400 268.570,14.580 269.200,14.800 269.200 C 15.020 269.200,15.200 269.920,15.200 270.800 C 15.200 271.956,15.367 272.400,15.800 272.400 C 16.197 272.400,16.400 272.797,16.400 273.576 C 16.400 274.223,16.580 274.864,16.800 275.000 C 17.020 275.136,17.200 275.687,17.200 276.224 C 17.200 276.825,17.431 277.200,17.800 277.200 C 18.173 277.200,18.400 277.578,18.400 278.200 C 18.400 278.750,18.580 279.200,18.800 279.200 C 19.020 279.200,19.200 279.637,19.200 280.171 C 19.200 280.706,19.470 281.413,19.800 281.743 C 20.130 282.073,20.400 282.716,20.400 283.171 C 20.400 283.627,20.580 284.000,20.800 284.000 C 21.020 284.000,21.200 284.450,21.200 285.000 C 21.200 285.550,21.360 286.000,21.557 286.000 C 21.753 286.000,22.026 286.450,22.164 287.000 C 22.302 287.550,22.592 288.000,22.808 288.000 C 23.023 288.000,23.200 288.450,23.200 289.000 C 23.200 289.550,23.380 290.000,23.600 290.000 C 23.820 290.000,24.000 290.450,24.000 291.000 C 24.000 291.622,24.227 292.000,24.600 292.000 C 24.940 292.000,25.200 292.359,25.200 292.829 C 25.200 293.714,26.066 294.800,26.771 294.800 C 27.007 294.800,27.200 295.250,27.200 295.800 C 27.200 296.350,27.380 296.800,27.600 296.800 C 27.820 296.800,28.000 297.250,28.000 297.800 C 28.000 298.422,28.227 298.800,28.600 298.800 C 28.973 298.800,29.200 299.178,29.200 299.800 C 29.200 300.350,29.380 300.800,29.600 300.800 C 29.820 300.800,30.000 301.166,30.000 301.613 C 30.000 302.059,30.270 302.529,30.600 302.655 C 30.930 302.782,31.200 303.136,31.200 303.443 C 31.200 303.749,31.380 304.000,31.600 304.000 C 31.820 304.000,32.000 304.360,32.000 304.800 C 32.000 305.244,32.267 305.600,32.600 305.600 C 32.930 305.600,33.200 305.870,33.200 306.200 C 33.200 306.530,33.380 306.800,33.600 306.800 C 33.820 306.800,34.000 307.220,34.000 307.732 C 34.000 308.318,34.372 308.864,35.000 309.200 C 35.550 309.494,36.000 310.073,36.000 310.487 C 36.000 310.900,36.450 311.655,37.000 312.165 C 37.550 312.675,38.006 313.341,38.013 313.646 C 38.030 314.390,38.978 315.600,39.544 315.600 C 39.795 315.600,40.000 315.960,40.000 316.400 C 40.000 316.840,40.180 317.200,40.400 317.200 C 40.620 317.200,40.800 317.470,40.800 317.800 C 40.800 318.130,41.070 318.400,41.400 318.400 C 41.730 318.400,42.000 318.593,42.000 318.829 C 42.000 319.064,42.225 319.508,42.500 319.815 C 43.687 321.138,44.000 321.591,44.000 321.983 C 44.000 322.212,44.180 322.400,44.400 322.400 C 44.620 322.400,44.800 322.670,44.800 323.000 C 44.800 323.330,44.993 323.600,45.229 323.600 C 45.861 323.600,46.800 324.651,46.800 325.360 C 46.800 326.053,51.712 331.200,52.374 331.200 C 52.608 331.200,52.800 331.584,52.800 332.053 C 52.800 332.522,53.430 333.500,54.200 334.226 C 54.970 334.952,55.600 335.738,55.600 335.973 C 55.600 336.208,55.793 336.400,56.029 336.400 C 56.582 336.400,57.600 337.418,57.600 337.971 C 57.600 338.207,57.793 338.400,58.029 338.400 C 58.550 338.400,59.600 339.405,59.600 339.904 C 59.600 340.102,60.050 340.506,60.600 340.800 C 61.150 341.094,61.600 341.498,61.600 341.696 C 61.600 342.110,62.615 343.200,63.000 343.200 C 63.415 343.200,64.400 344.305,64.400 344.771 C 64.400 345.007,64.627 345.200,64.905 345.200 C 65.183 345.200,65.748 345.650,66.161 346.200 C 66.574 346.750,67.247 347.200,67.656 347.200 C 68.065 347.200,68.400 347.380,68.400 347.600 C 68.400 347.820,68.670 348.000,69.000 348.000 C 69.330 348.000,69.600 348.193,69.600 348.429 C 69.600 348.982,70.618 350.000,71.171 350.000 C 71.407 350.000,71.600 350.193,71.600 350.429 C 71.600 350.982,72.618 352.000,73.171 352.000 C 73.407 352.000,73.600 352.270,73.600 352.600 C 73.600 352.940,73.959 353.200,74.429 353.200 C 75.213 353.200,76.400 354.043,76.400 354.600 C 76.400 355.015,77.505 356.000,77.971 356.000 C 78.207 356.000,78.400 356.180,78.400 356.400 C 78.400 356.620,78.850 356.800,79.400 356.800 C 79.950 356.800,80.400 356.993,80.400 357.229 C 80.400 357.782,81.418 358.800,81.971 358.800 C 82.207 358.800,82.400 359.070,82.400 359.400 C 82.400 359.740,82.759 360.000,83.229 360.000 C 84.114 360.000,85.200 360.866,85.200 361.571 C 85.200 361.807,85.572 362.000,86.027 362.000 C 86.482 362.000,87.448 362.630,88.174 363.400 C 88.900 364.170,89.878 364.800,90.347 364.800 C 90.816 364.800,91.200 365.005,91.200 365.256 C 91.200 365.857,92.428 366.771,93.257 366.787 C 93.619 366.794,94.018 367.070,94.145 367.400 C 94.271 367.730,94.741 368.000,95.187 368.000 C 95.634 368.000,96.000 368.180,96.000 368.400 C 96.000 368.620,96.270 368.800,96.600 368.800 C 96.930 368.800,97.200 368.980,97.200 369.200 C 97.200 369.420,97.650 369.600,98.200 369.600 C 98.822 369.600,99.200 369.827,99.200 370.200 C 99.200 370.533,99.556 370.800,100.000 370.800 C 100.440 370.800,100.800 370.980,100.800 371.200 C 100.800 371.420,101.051 371.600,101.357 371.600 C 101.664 371.600,102.018 371.870,102.145 372.200 C 102.271 372.530,102.741 372.800,103.187 372.800 C 103.634 372.800,104.000 372.980,104.000 373.200 C 104.000 373.420,104.450 373.600,105.000 373.600 C 105.622 373.600,106.000 373.827,106.000 374.200 C 106.000 374.573,106.378 374.800,107.000 374.800 C 107.550 374.800,108.000 374.980,108.000 375.200 C 108.000 375.420,108.450 375.600,109.000 375.600 C 109.622 375.600,110.000 375.827,110.000 376.200 C 110.000 376.573,110.378 376.800,111.000 376.800 C 111.550 376.800,112.000 376.980,112.000 377.200 C 112.000 377.420,112.366 377.600,112.813 377.600 C 113.259 377.600,113.729 377.870,113.855 378.200 C 113.982 378.530,114.426 378.800,114.843 378.800 C 115.259 378.800,115.600 378.980,115.600 379.200 C 115.600 379.420,116.031 379.600,116.557 379.600 C 117.084 379.600,117.618 379.870,117.745 380.200 C 117.871 380.530,118.330 380.800,118.764 380.800 C 119.198 380.800,119.664 380.980,119.800 381.200 C 119.936 381.420,120.487 381.600,121.024 381.600 C 121.561 381.600,122.000 381.780,122.000 382.000 C 122.000 382.220,122.341 382.400,122.757 382.400 C 123.174 382.400,123.618 382.670,123.745 383.000 C 123.889 383.377,124.501 383.600,125.387 383.600 C 126.164 383.600,126.800 383.780,126.800 384.000 C 126.800 384.220,127.430 384.400,128.200 384.400 C 129.178 384.400,129.600 384.581,129.600 385.000 C 129.600 385.419,130.022 385.600,131.000 385.600 C 131.770 385.600,132.400 385.780,132.400 386.000 C 132.400 386.220,132.831 386.400,133.357 386.400 C 133.884 386.400,134.418 386.670,134.545 387.000 C 134.689 387.377,135.301 387.600,136.187 387.600 C 136.964 387.600,137.600 387.780,137.600 388.000 C 137.600 388.220,138.230 388.400,139.000 388.400 C 139.978 388.400,140.400 388.581,140.400 389.000 C 140.400 389.453,140.889 389.600,142.400 389.600 C 143.500 389.600,144.400 389.780,144.400 390.000 C 144.400 390.220,144.985 390.406,145.700 390.413 C 146.415 390.420,147.349 390.690,147.776 391.013 C 148.204 391.336,149.149 391.600,149.876 391.600 C 150.604 391.600,151.200 391.780,151.200 392.000 C 151.200 392.220,152.081 392.400,153.157 392.400 C 154.465 392.400,155.186 392.586,155.329 392.959 C 155.545 393.522,157.211 393.822,162.500 394.248 C 163.985 394.368,165.200 394.631,165.200 394.833 C 165.200 395.035,166.261 395.200,167.557 395.200 C 169.284 395.200,169.976 395.361,170.145 395.800 C 170.327 396.275,171.168 396.400,174.187 396.400 C 176.462 396.400,178.000 396.561,178.000 396.800 C 178.000 397.048,180.210 397.200,183.829 397.200 C 188.476 397.200,189.779 397.322,190.257 397.800 C 191.148 398.691,208.852 398.691,209.743 397.800 C 210.221 397.322,211.524 397.200,216.171 397.200 C 219.790 397.200,222.000 397.048,222.000 396.800 C 222.000 396.561,223.538 396.400,225.813 396.400 C 228.832 396.400,229.673 396.275,229.855 395.800 C 230.024 395.361,230.716 395.200,232.443 395.200 C 233.748 395.200,234.800 395.021,234.800 394.800 C 234.800 394.569,236.067 394.400,237.800 394.400 C 239.533 394.400,240.800 394.231,240.800 394.000 C 240.800 393.780,241.616 393.600,242.613 393.600 C 243.855 393.600,244.498 393.411,244.655 393.000 C 244.820 392.570,245.492 392.400,247.019 392.400 C 248.193 392.400,249.264 392.220,249.400 392.000 C 249.536 391.780,250.052 391.600,250.547 391.600 C 251.042 391.600,251.796 391.336,252.224 391.013 C 252.651 390.690,253.585 390.420,254.300 390.413 C 255.015 390.406,255.600 390.220,255.600 390.000 C 255.600 389.780,256.500 389.600,257.600 389.600 C 259.111 389.600,259.600 389.453,259.600 389.000 C 259.600 388.581,260.022 388.400,261.000 388.400 C 261.770 388.400,262.400 388.220,262.400 388.000 C 262.400 387.780,263.036 387.600,263.813 387.600 C 264.699 387.600,265.311 387.377,265.455 387.000 C 265.582 386.670,266.116 386.400,266.643 386.400 C 267.169 386.400,267.600 386.220,267.600 386.000 C 267.600 385.780,268.230 385.600,269.000 385.600 C 269.978 385.600,270.400 385.419,270.400 385.000 C 270.400 384.581,270.822 384.400,271.800 384.400 C 272.570 384.400,273.200 384.220,273.200 384.000 C 273.200 383.780,273.920 383.600,274.800 383.600 C 275.956 383.600,276.400 383.433,276.400 383.000 C 276.400 382.670,276.672 382.400,277.005 382.400 C 277.593 382.400,278.018 382.233,279.895 381.262 C 280.387 381.008,281.067 380.800,281.407 380.800 C 281.747 380.800,282.129 380.530,282.255 380.200 C 282.382 379.870,282.916 379.600,283.443 379.600 C 283.969 379.600,284.400 379.440,284.400 379.245 C 284.400 379.049,284.991 378.778,285.713 378.643 C 286.435 378.507,287.285 378.037,287.601 377.598 C 287.918 377.159,288.587 376.800,289.088 376.800 C 289.632 376.800,290.000 376.558,290.000 376.200 C 290.000 375.827,290.378 375.600,291.000 375.600 C 291.550 375.600,292.000 375.420,292.000 375.200 C 292.000 374.980,292.450 374.800,293.000 374.800 C 293.622 374.800,294.000 374.573,294.000 374.200 C 294.000 373.827,294.378 373.600,295.000 373.600 C 295.550 373.600,296.000 373.420,296.000 373.200 C 296.000 372.980,296.450 372.800,297.000 372.800 C 297.622 372.800,298.000 372.573,298.000 372.200 C 298.000 371.870,298.270 371.600,298.600 371.600 C 298.930 371.600,299.200 371.420,299.200 371.200 C 299.200 370.980,299.560 370.800,300.000 370.800 C 300.444 370.800,300.800 370.533,300.800 370.200 C 300.800 369.827,301.178 369.600,301.800 369.600 C 302.350 369.600,302.800 369.420,302.800 369.200 C 302.800 368.980,303.134 368.800,303.542 368.800 C 303.949 368.800,304.769 368.350,305.362 367.800 C 305.956 367.250,306.715 366.800,307.049 366.800 C 307.750 366.800,308.800 365.858,308.800 365.229 C 308.800 364.993,309.250 364.800,309.800 364.800 C 310.350 364.800,310.800 364.620,310.800 364.400 C 310.800 364.180,311.070 364.000,311.400 364.000 C 311.730 364.000,312.000 363.807,312.000 363.571 C 312.000 362.866,313.086 362.000,313.971 362.000 C 314.441 362.000,314.800 361.740,314.800 361.400 C 314.800 361.070,315.115 360.794,315.500 360.787 C 316.365 360.772,317.600 359.871,317.600 359.256 C 317.600 359.005,317.870 358.800,318.200 358.800 C 318.530 358.800,318.800 358.620,318.800 358.400 C 318.800 358.180,319.079 358.000,319.419 358.000 C 319.760 358.000,320.455 357.550,320.965 357.000 C 321.475 356.450,322.019 356.000,322.174 356.000 C 322.610 356.000,323.600 354.909,323.600 354.429 C 323.600 354.193,323.938 354.000,324.351 354.000 C 325.171 354.000,328.400 351.166,328.400 350.447 C 328.400 350.201,328.593 350.000,328.829 350.000 C 329.382 350.000,330.400 348.982,330.400 348.429 C 330.400 348.193,330.850 348.000,331.400 348.000 C 331.950 348.000,332.400 347.820,332.400 347.600 C 332.400 347.380,332.670 347.200,333.000 347.200 C 333.330 347.200,333.600 347.007,333.600 346.771 C 333.600 346.218,334.618 345.200,335.171 345.200 C 335.407 345.200,335.600 345.007,335.600 344.771 C 335.600 344.305,336.585 343.200,337.000 343.200 C 337.415 343.200,338.400 342.095,338.400 341.629 C 338.400 341.393,338.593 341.200,338.829 341.200 C 339.295 341.200,340.400 340.215,340.400 339.800 C 340.400 339.385,341.505 338.400,341.971 338.400 C 342.207 338.400,342.400 338.207,342.400 337.971 C 342.400 337.418,343.418 336.400,343.971 336.400 C 344.207 336.400,344.400 336.207,344.400 335.971 C 344.400 335.418,345.418 334.400,345.971 334.400 C 346.207 334.400,346.400 334.130,346.400 333.800 C 346.400 333.470,346.580 333.200,346.800 333.200 C 347.020 333.200,347.200 332.750,347.200 332.200 C 347.200 331.650,347.387 331.200,347.616 331.200 C 348.300 331.200,353.200 326.111,353.200 325.400 C 353.200 324.658,354.124 323.600,354.771 323.600 C 355.007 323.600,355.200 323.407,355.200 323.171 C 355.200 322.618,356.218 321.600,356.771 321.600 C 357.007 321.600,357.200 321.150,357.200 320.600 C 357.200 320.050,357.380 319.600,357.600 319.600 C 357.820 319.600,358.000 319.330,358.000 319.000 C 358.000 318.670,358.270 318.400,358.600 318.400 C 358.930 318.400,359.200 318.130,359.200 317.800 C 359.200 317.470,359.380 317.200,359.600 317.200 C 359.820 317.200,360.000 316.840,360.000 316.400 C 360.000 315.960,360.193 315.600,360.429 315.600 C 361.134 315.600,362.000 314.514,362.000 313.629 C 362.000 313.159,362.260 312.800,362.600 312.800 C 362.930 312.800,363.200 312.530,363.200 312.200 C 363.200 311.870,363.380 311.600,363.600 311.600 C 363.820 311.600,364.000 311.407,364.000 311.171 C 364.000 310.936,364.225 310.492,364.500 310.185 C 365.777 308.762,366.000 308.379,366.000 307.617 C 366.000 307.168,366.180 306.800,366.400 306.800 C 366.620 306.800,366.800 306.530,366.800 306.200 C 366.800 305.870,367.070 305.600,367.400 305.600 C 367.733 305.600,368.000 305.244,368.000 304.800 C 368.000 304.360,368.180 304.000,368.400 304.000 C 368.620 304.000,368.800 303.730,368.800 303.400 C 368.800 303.070,369.070 302.800,369.400 302.800 C 369.773 302.800,370.000 302.422,370.000 301.800 C 370.000 301.250,370.180 300.800,370.400 300.800 C 370.620 300.800,370.800 300.350,370.800 299.800 C 370.800 299.178,371.027 298.800,371.400 298.800 C 371.738 298.800,372.000 298.443,372.000 297.983 C 372.000 297.533,372.450 296.680,373.000 296.087 C 373.550 295.493,374.000 294.781,374.000 294.504 C 374.000 294.227,374.180 294.000,374.400 294.000 C 374.620 294.000,374.800 293.550,374.800 293.000 C 374.800 292.378,375.027 292.000,375.400 292.000 C 375.773 292.000,376.000 291.622,376.000 291.000 C 376.000 290.450,376.180 290.000,376.400 290.000 C 376.620 290.000,376.800 289.550,376.800 289.000 C 376.800 288.378,377.027 288.000,377.400 288.000 C 377.773 288.000,378.000 287.622,378.000 287.000 C 378.000 286.450,378.180 286.000,378.400 286.000 C 378.620 286.000,378.800 285.569,378.800 285.043 C 378.800 284.516,379.070 283.982,379.400 283.855 C 379.730 283.729,380.000 283.259,380.000 282.813 C 380.000 282.366,380.180 282.000,380.400 282.000 C 380.620 282.000,380.800 281.370,380.800 280.600 C 380.800 279.830,380.980 279.200,381.200 279.200 C 381.420 279.200,381.600 278.750,381.600 278.200 C 381.600 277.578,381.827 277.200,382.200 277.200 C 382.573 277.200,382.800 276.822,382.800 276.200 C 382.800 275.650,382.980 275.200,383.200 275.200 C 383.420 275.200,383.600 274.570,383.600 273.800 C 383.600 272.822,383.781 272.400,384.200 272.400 C 384.633 272.400,384.800 271.956,384.800 270.800 C 384.800 269.920,384.980 269.200,385.200 269.200 C 385.420 269.200,385.600 268.750,385.600 268.200 C 385.600 267.578,385.827 267.200,386.200 267.200 C 386.617 267.200,386.800 266.780,386.800 265.824 C 386.800 265.067,386.980 264.336,387.200 264.200 C 387.420 264.064,387.600 263.443,387.600 262.819 C 387.600 262.181,387.862 261.585,388.200 261.455 C 388.577 261.311,388.800 260.699,388.800 259.813 C 388.800 259.036,388.980 258.400,389.200 258.400 C 389.420 258.400,389.600 257.500,389.600 256.400 C 389.600 254.889,389.747 254.400,390.200 254.400 C 390.644 254.400,390.800 253.933,390.800 252.600 C 390.800 251.610,390.980 250.800,391.200 250.800 C 391.420 250.800,391.600 249.919,391.600 248.843 C 391.600 247.472,391.780 246.817,392.200 246.655 C 392.577 246.511,392.800 245.899,392.800 245.013 C 392.800 244.236,392.980 243.600,393.200 243.600 C 393.422 243.600,393.600 242.533,393.600 241.200 C 393.600 239.867,393.778 238.800,394.000 238.800 C 394.231 238.800,394.400 237.533,394.400 235.800 C 394.400 233.400,394.520 232.800,395.000 232.800 C 395.486 232.800,395.600 232.156,395.600 229.400 C 395.600 227.400,395.765 226.000,396.000 226.000 C 396.243 226.000,396.400 224.257,396.400 221.571 C 396.400 218.168,396.539 217.004,397.000 216.543 C 397.901 215.642,397.901 183.958,397.000 183.057 C 396.542 182.599,396.400 181.454,396.400 178.229 C 396.400 175.676,396.241 174.000,396.000 174.000 C 395.765 174.000,395.600 172.596,395.600 170.587 C 395.600 167.923,395.468 167.124,395.000 166.945 C 394.547 166.771,394.400 166.039,394.400 163.957 C 394.400 162.386,394.228 161.200,394.000 161.200 C 393.774 161.200,393.600 160.067,393.600 158.600 C 393.600 157.133,393.426 156.000,393.200 156.000 C 392.980 156.000,392.800 155.370,392.800 154.600 C 392.800 153.622,392.619 153.200,392.200 153.200 C 391.747 153.200,391.600 152.711,391.600 151.200 C 391.600 150.100,391.420 149.200,391.200 149.200 C 390.980 149.200,390.800 148.384,390.800 147.387 C 390.800 146.145,390.611 145.502,390.200 145.345 C 389.780 145.183,389.600 144.528,389.600 143.157 C 389.600 142.081,389.420 141.200,389.200 141.200 C 388.980 141.200,388.800 140.654,388.800 139.987 C 388.800 139.279,388.551 138.679,388.200 138.545 C 387.862 138.415,387.600 137.819,387.600 137.181 C 387.600 136.557,387.420 135.936,387.200 135.800 C 386.980 135.664,386.800 134.928,386.800 134.164 C 386.800 133.298,386.574 132.688,386.200 132.545 C 385.870 132.418,385.600 131.884,385.600 131.357 C 385.600 130.831,385.420 130.400,385.200 130.400 C 384.980 130.400,384.800 129.770,384.800 129.000 C 384.800 128.022,384.619 127.600,384.200 127.600 C 383.781 127.600,383.600 127.178,383.600 126.200 C 383.600 125.430,383.420 124.800,383.200 124.800 C 382.980 124.800,382.800 124.350,382.800 123.800 C 382.800 123.178,382.573 122.800,382.200 122.800 C 381.827 122.800,381.600 122.422,381.600 121.800 C 381.600 121.250,381.420 120.800,381.200 120.800 C 380.980 120.800,380.800 120.181,380.800 119.424 C 380.800 118.667,380.620 117.936,380.400 117.800 C 380.180 117.664,380.000 117.198,380.000 116.764 C 380.000 116.330,379.730 115.871,379.400 115.745 C 379.070 115.618,378.800 115.184,378.800 114.781 C 378.800 114.377,378.620 113.936,378.400 113.800 C 378.180 113.664,378.000 113.198,378.000 112.764 C 378.000 112.330,377.730 111.871,377.400 111.745 C 377.070 111.618,376.800 111.174,376.800 110.757 C 376.800 110.341,376.620 110.000,376.400 110.000 C 376.180 110.000,376.000 109.550,376.000 109.000 C 376.000 108.378,375.773 108.000,375.400 108.000 C 375.027 108.000,374.800 107.622,374.800 107.000 C 374.800 106.450,374.641 106.000,374.447 106.000 C 374.252 106.000,373.974 105.685,373.829 105.300 C 373.333 103.985,372.611 102.800,372.305 102.800 C 372.137 102.800,372.000 102.350,372.000 101.800 C 372.000 101.178,371.773 100.800,371.400 100.800 C 371.027 100.800,370.800 100.422,370.800 99.800 C 370.800 99.250,370.620 98.800,370.400 98.800 C 370.180 98.800,370.000 98.440,370.000 98.000 C 370.000 97.556,369.733 97.200,369.400 97.200 C 369.070 97.200,368.800 96.930,368.800 96.600 C 368.800 96.270,368.620 96.000,368.400 96.000 C 368.180 96.000,368.000 95.550,368.000 95.000 C 368.000 94.450,367.807 94.000,367.571 94.000 C 366.914 94.000,366.000 92.938,366.000 92.174 C 366.000 91.799,365.550 91.075,365.000 90.565 C 364.450 90.055,364.000 89.347,364.000 88.991 C 364.000 88.256,363.073 87.200,362.429 87.200 C 362.193 87.200,362.000 86.827,362.000 86.371 C 362.000 85.486,361.134 84.400,360.429 84.400 C 360.193 84.400,360.000 84.130,360.000 83.800 C 360.000 83.470,359.820 83.200,359.600 83.200 C 359.380 83.200,359.200 82.750,359.200 82.200 C 359.200 81.650,359.007 81.200,358.771 81.200 C 358.066 81.200,357.200 80.114,357.200 79.229 C 357.200 78.759,356.940 78.400,356.600 78.400 C 356.270 78.400,356.000 78.207,356.000 77.971 C 356.000 77.418,354.982 76.400,354.429 76.400 C 354.193 76.400,354.000 76.130,354.000 75.800 C 354.000 75.470,353.820 75.200,353.600 75.200 C 353.380 75.200,353.200 74.863,353.200 74.451 C 353.200 74.039,352.570 73.164,351.800 72.506 C 351.030 71.848,350.400 71.105,350.400 70.855 C 350.400 70.605,350.207 70.400,349.971 70.400 C 349.418 70.400,348.400 69.382,348.400 68.829 C 348.400 68.593,348.130 68.400,347.800 68.400 C 347.460 68.400,347.200 68.041,347.200 67.571 C 347.200 66.686,346.334 65.600,345.629 65.600 C 345.393 65.600,345.200 65.407,345.200 65.171 C 345.200 64.618,344.182 63.600,343.629 63.600 C 343.393 63.600,343.200 63.407,343.200 63.171 C 343.200 62.618,342.182 61.600,341.629 61.600 C 341.393 61.600,341.200 61.418,341.200 61.195 C 341.200 60.674,337.317 56.800,336.795 56.800 C 336.578 56.800,336.400 56.607,336.400 56.371 C 336.400 55.818,335.382 54.800,334.829 54.800 C 334.593 54.800,334.400 54.607,334.400 54.371 C 334.400 53.818,333.382 52.800,332.829 52.800 C 332.593 52.800,332.400 52.530,332.400 52.200 C 332.400 51.860,332.041 51.600,331.571 51.600 C 330.686 51.600,329.600 50.734,329.600 50.029 C 329.600 49.793,329.407 49.600,329.171 49.600 C 328.705 49.600,327.600 48.615,327.600 48.200 C 327.600 47.656,326.421 46.800,325.671 46.800 C 325.239 46.800,324.778 46.519,324.646 46.175 C 324.514 45.831,324.224 45.661,324.003 45.798 C 323.781 45.935,323.600 45.844,323.600 45.595 C 323.600 45.022,322.593 44.000,322.029 44.000 C 321.793 44.000,321.600 43.730,321.600 43.400 C 321.600 43.060,321.241 42.800,320.771 42.800 C 319.886 42.800,318.800 41.934,318.800 41.229 C 318.800 40.993,318.530 40.800,318.200 40.800 C 317.870 40.800,317.600 40.620,317.600 40.400 C 317.600 40.180,317.150 40.000,316.600 40.000 C 316.050 40.000,315.600 39.807,315.600 39.571 C 315.600 38.866,314.514 38.000,313.629 38.000 C 313.173 38.000,312.800 37.807,312.800 37.571 C 312.800 37.038,311.790 36.000,311.271 36.000 C 311.059 36.000,310.782 35.730,310.655 35.400 C 310.529 35.070,310.126 34.800,309.759 34.800 C 309.393 34.800,308.773 34.430,308.381 33.978 C 307.988 33.525,307.292 33.127,306.834 33.093 C 306.375 33.058,305.999 32.843,305.997 32.615 C 305.994 32.166,304.166 31.200,303.320 31.200 C 303.034 31.200,302.800 30.930,302.800 30.600 C 302.800 30.227,302.422 30.000,301.800 30.000 C 301.250 30.000,300.800 29.820,300.800 29.600 C 300.800 29.380,300.440 29.200,300.000 29.200 C 299.556 29.200,299.200 28.933,299.200 28.600 C 299.200 28.270,298.930 28.000,298.600 28.000 C 298.270 28.000,298.000 27.820,298.000 27.600 C 298.000 27.380,297.550 27.200,297.000 27.200 C 296.378 27.200,296.000 26.973,296.000 26.600 C 296.000 26.227,295.622 26.000,295.000 26.000 C 294.450 26.000,294.000 25.820,294.000 25.600 C 294.000 25.380,293.550 25.200,293.000 25.200 C 292.378 25.200,292.000 24.973,292.000 24.600 C 292.000 24.227,291.622 24.000,291.000 24.000 C 290.450 24.000,290.000 23.820,290.000 23.600 C 290.000 23.380,289.550 23.200,289.000 23.200 C 288.450 23.200,288.000 22.995,288.000 22.744 C 288.000 22.064,286.727 21.227,285.671 21.213 C 285.161 21.206,284.471 20.928,284.139 20.596 C 283.807 20.264,283.369 20.096,283.165 20.222 C 282.961 20.348,282.686 20.169,282.554 19.825 C 282.422 19.481,281.884 19.200,281.357 19.200 C 280.831 19.200,280.400 19.020,280.400 18.800 C 280.400 18.580,279.969 18.400,279.443 18.400 C 278.916 18.400,278.382 18.130,278.255 17.800 C 278.129 17.470,277.659 17.200,277.213 17.200 C 276.766 17.200,276.400 17.020,276.400 16.800 C 276.400 16.580,275.680 16.400,274.800 16.400 C 273.644 16.400,273.200 16.233,273.200 15.800 C 273.200 15.381,272.778 15.200,271.800 15.200 C 271.030 15.200,270.400 15.020,270.400 14.800 C 270.400 14.580,269.770 14.400,269.000 14.400 C 268.022 14.400,267.600 14.219,267.600 13.800 C 267.600 13.427,267.222 13.200,266.600 13.200 C 266.050 13.200,265.600 13.020,265.600 12.800 C 265.600 12.580,264.880 12.400,264.000 12.400 C 262.844 12.400,262.400 12.233,262.400 11.800 C 262.400 11.381,261.978 11.200,261.000 11.200 C 260.230 11.200,259.600 11.020,259.600 10.800 C 259.600 10.580,258.700 10.400,257.600 10.400 C 256.089 10.400,255.600 10.253,255.600 9.800 C 255.600 9.383,255.180 9.200,254.224 9.200 C 253.467 9.200,252.736 9.020,252.600 8.800 C 252.464 8.580,251.748 8.400,251.010 8.400 C 250.271 8.400,249.592 8.176,249.501 7.902 C 249.398 7.593,248.521 7.393,247.191 7.373 C 245.927 7.355,244.983 7.149,244.890 6.871 C 244.799 6.596,243.926 6.400,242.790 6.400 C 241.722 6.400,240.736 6.220,240.600 6.000 C 240.464 5.780,239.103 5.600,237.576 5.600 C 235.375 5.600,234.800 5.476,234.800 5.000 C 234.800 4.533,234.267 4.400,232.400 4.400 C 231.067 4.400,230.000 4.222,230.000 4.000 C 230.000 3.760,228.400 3.600,226.000 3.600 C 222.711 3.600,222.000 3.493,222.000 3.000 C 222.000 2.492,221.025 2.400,215.624 2.400 C 211.804 2.400,209.148 2.240,209.000 2.000 C 208.847 1.753,205.404 1.600,200.000 1.600 C 194.596 1.600,191.153 1.753,191.000 2.000 M297.639 92.681 C 298.827 93.559,300.046 94.800,300.347 95.439 C 300.647 96.078,301.052 96.913,301.247 97.295 C 301.441 97.677,301.600 98.984,301.600 100.200 C 301.600 101.416,301.441 102.723,301.247 103.105 C 301.052 103.487,300.675 104.271,300.408 104.846 C 300.141 105.421,299.534 106.321,299.057 106.846 C 298.581 107.371,297.565 108.610,296.799 109.600 C 296.034 110.590,295.069 111.760,294.655 112.200 C 294.241 112.640,293.429 113.630,292.851 114.400 C 291.590 116.079,290.544 117.323,289.200 118.743 C 288.649 119.325,287.670 120.520,287.023 121.400 C 286.376 122.280,285.476 123.363,285.023 123.806 C 284.570 124.249,283.667 125.329,283.014 126.206 C 282.362 127.083,281.642 127.995,281.414 128.234 C 281.187 128.473,280.370 129.454,279.600 130.414 C 277.995 132.416,276.022 134.764,275.319 135.510 C 275.054 135.790,274.158 136.870,273.328 137.910 C 272.498 138.949,271.230 140.394,270.510 141.119 C 269.789 141.845,269.200 142.610,269.200 142.819 C 269.200 143.029,269.020 143.200,268.800 143.200 C 268.580 143.200,268.400 143.425,268.400 143.700 C 268.399 143.975,267.499 145.138,266.400 146.285 C 265.300 147.431,264.400 148.541,264.400 148.751 C 264.400 148.961,264.265 149.193,264.100 149.267 C 263.935 149.340,263.117 150.251,262.281 151.290 C 261.446 152.330,260.546 153.410,260.281 153.691 C 260.017 153.971,259.117 155.051,258.281 156.091 C 257.446 157.130,256.546 158.210,256.281 158.491 C 256.017 158.771,255.117 159.851,254.281 160.891 C 253.446 161.930,252.546 163.010,252.281 163.290 C 251.578 164.036,249.605 166.384,248.000 168.386 C 247.230 169.346,246.420 170.327,246.200 170.566 C 245.980 170.805,245.264 171.720,244.609 172.600 C 243.953 173.480,242.928 174.740,242.331 175.400 C 241.733 176.060,240.205 177.860,238.935 179.400 C 237.665 180.940,236.530 182.290,236.412 182.400 C 236.295 182.510,235.143 183.905,233.854 185.500 C 232.564 187.095,231.350 188.400,231.155 188.400 C 230.960 188.400,230.800 188.601,230.800 188.846 C 230.800 189.200,227.337 193.552,226.379 194.400 C 226.255 194.510,225.861 195.028,225.503 195.552 C 225.145 196.076,224.127 197.336,223.242 198.352 C 222.357 199.368,220.082 202.090,218.188 204.400 C 216.293 206.710,214.045 209.410,213.192 210.400 C 212.339 211.390,211.231 212.740,210.730 213.400 C 210.229 214.060,209.365 215.075,208.810 215.657 C 207.715 216.802,207.321 217.276,205.200 220.001 C 204.430 220.991,203.350 222.315,202.800 222.944 C 200.922 225.092,199.977 226.200,199.682 226.600 C 199.425 226.949,192.279 235.623,190.455 237.800 C 190.086 238.240,188.535 240.130,187.008 242.000 C 185.481 243.870,184.008 245.629,183.734 245.910 C 183.461 246.190,182.554 247.270,181.719 248.309 C 180.883 249.349,179.962 250.450,179.672 250.757 C 179.381 251.063,178.130 252.593,176.893 254.157 C 175.655 255.721,174.541 257.090,174.416 257.200 C 174.291 257.310,173.382 258.390,172.396 259.600 C 171.410 260.810,170.423 261.993,170.202 262.230 C 169.981 262.466,169.350 263.243,168.800 263.956 C 167.217 266.009,165.096 268.461,163.900 269.620 C 163.295 270.207,162.795 270.847,162.789 271.043 C 162.783 271.239,162.057 272.187,161.176 273.149 C 160.294 274.111,158.904 275.731,158.086 276.749 C 157.269 277.766,156.420 278.792,156.200 279.029 C 155.980 279.265,155.260 280.158,154.600 281.013 C 149.528 287.583,144.921 289.613,140.184 287.365 C 138.555 286.593,134.800 282.969,134.800 282.170 C 134.800 281.888,132.889 279.320,131.700 278.004 C 131.205 277.456,130.800 276.781,130.800 276.504 C 130.800 276.227,130.659 276.000,130.486 276.000 C 130.314 276.000,129.828 275.415,129.407 274.700 C 128.986 273.985,128.244 272.971,127.759 272.446 C 127.274 271.921,126.635 271.021,126.338 270.446 C 126.042 269.871,125.602 269.220,125.360 269.000 C 125.118 268.780,123.768 266.980,122.360 265.000 C 120.952 263.020,119.395 260.952,118.900 260.404 C 118.405 259.856,118.000 259.263,118.000 259.087 C 118.000 258.910,117.550 258.280,117.000 257.687 C 116.450 257.093,116.000 256.396,116.000 256.137 C 116.000 255.879,115.848 255.607,115.661 255.533 C 115.475 255.460,113.906 253.420,112.174 251.000 C 110.443 248.580,108.795 246.362,108.513 246.071 C 108.231 245.781,108.000 245.410,108.000 245.247 C 108.000 245.084,107.684 244.602,107.297 244.175 C 103.449 239.932,104.256 232.262,108.810 229.802 C 112.246 227.947,117.061 227.382,117.527 228.781 C 117.604 229.011,117.971 229.200,118.344 229.200 C 119.321 229.200,124.380 234.440,124.394 235.467 C 124.397 235.723,124.542 235.993,124.716 236.067 C 124.889 236.140,126.787 238.630,128.934 241.600 C 131.080 244.570,133.053 247.270,133.318 247.600 C 133.583 247.930,134.146 248.736,134.568 249.390 C 134.990 250.044,135.490 250.764,135.679 250.990 C 136.119 251.516,138.716 255.012,141.907 259.374 C 144.690 263.179,144.774 263.229,145.844 261.768 C 146.688 260.615,147.545 259.579,149.130 257.797 C 149.719 257.136,150.722 255.876,151.360 254.997 C 151.998 254.119,152.721 253.220,152.968 253.000 C 153.214 252.780,154.583 251.162,156.008 249.404 C 157.434 247.646,158.817 245.977,159.081 245.694 C 159.346 245.411,160.244 244.330,161.076 243.290 C 161.909 242.251,162.952 241.037,163.395 240.594 C 163.838 240.151,164.730 239.071,165.379 238.194 C 166.027 237.317,166.668 236.510,166.802 236.400 C 166.936 236.290,168.288 234.670,169.807 232.800 C 171.326 230.930,172.756 229.200,172.984 228.955 C 173.213 228.710,174.030 227.740,174.800 226.800 C 175.570 225.860,176.383 224.890,176.606 224.645 C 176.829 224.400,178.439 222.490,180.184 220.400 C 181.930 218.310,183.502 216.540,183.679 216.467 C 183.855 216.393,184.000 216.170,184.000 215.970 C 184.000 215.573,185.172 214.084,186.900 212.284 C 187.505 211.654,188.000 210.987,188.000 210.803 C 188.000 210.618,188.135 210.407,188.300 210.333 C 188.465 210.260,189.283 209.349,190.119 208.310 C 190.954 207.270,191.854 206.190,192.119 205.910 C 193.012 204.963,194.992 202.581,196.200 201.002 C 196.860 200.139,197.940 198.852,198.600 198.143 C 199.260 197.434,200.160 196.361,200.600 195.759 C 201.914 193.962,204.929 190.274,206.000 189.154 C 206.550 188.579,207.540 187.416,208.200 186.569 C 209.396 185.033,211.609 182.380,212.010 182.000 C 212.126 181.890,212.846 180.990,213.609 180.000 C 214.373 179.010,215.358 177.827,215.799 177.372 C 216.240 176.916,217.230 175.755,218.000 174.791 C 219.614 172.771,221.696 170.292,222.023 170.000 C 222.146 169.890,222.526 169.391,222.867 168.891 C 223.208 168.392,224.098 167.312,224.844 166.491 C 225.590 165.671,226.735 164.280,227.388 163.400 C 228.041 162.520,228.910 161.440,229.318 161.000 C 229.726 160.560,231.077 158.940,232.319 157.400 C 233.561 155.860,235.168 154.006,235.889 153.281 C 236.610 152.555,237.200 151.873,237.200 151.764 C 237.200 151.655,237.383 151.349,237.607 151.083 C 237.831 150.817,238.385 150.150,238.838 149.600 C 239.290 149.050,240.157 148.053,240.763 147.384 C 241.370 146.716,242.031 145.876,242.233 145.519 C 242.435 145.161,243.365 144.054,244.300 143.058 C 245.235 142.062,246.000 141.134,246.000 140.995 C 246.000 140.856,246.234 140.508,246.521 140.222 C 246.807 139.935,247.662 138.937,248.421 138.004 C 249.179 137.070,249.980 136.102,250.200 135.852 C 250.420 135.603,251.318 134.506,252.196 133.415 C 253.073 132.324,254.243 130.966,254.796 130.396 C 255.348 129.826,256.330 128.649,256.979 127.780 C 257.627 126.911,258.258 126.110,258.380 126.000 C 258.779 125.639,260.975 123.004,262.200 121.414 C 262.860 120.558,263.670 119.567,264.000 119.212 C 264.330 118.857,265.311 117.675,266.180 116.584 C 267.049 115.493,268.198 114.150,268.734 113.600 C 269.270 113.050,270.386 111.700,271.213 110.600 C 272.041 109.500,273.456 107.820,274.359 106.866 C 275.262 105.913,276.000 105.009,276.000 104.858 C 276.000 104.706,276.803 103.708,277.784 102.639 C 278.765 101.571,279.620 100.550,279.684 100.372 C 280.074 99.283,286.088 92.878,287.617 91.925 C 290.414 90.180,294.690 90.503,297.639 92.681 " stroke="none" fill="#047c3c" fill-rule="evenodd"></path><path id="path1" d="M287.983 92.624 C 286.924 93.186,283.619 96.511,282.972 97.664 C 282.768 98.030,282.055 98.930,281.389 99.664 C 280.724 100.399,279.141 102.306,277.872 103.901 C 276.602 105.497,275.250 107.117,274.867 107.501 C 274.483 107.886,273.704 108.830,273.134 109.600 C 272.565 110.370,271.447 111.688,270.649 112.528 C 269.852 113.369,269.200 114.159,269.200 114.284 C 269.200 114.409,268.238 115.611,267.062 116.956 C 265.885 118.300,264.054 120.480,262.991 121.800 C 261.928 123.120,260.955 124.290,260.829 124.400 C 260.625 124.578,258.000 127.751,256.401 129.752 C 256.070 130.166,255.170 131.268,254.400 132.200 C 253.630 133.132,252.728 134.234,252.396 134.648 C 250.738 136.713,242.097 147.029,241.423 147.749 C 241.190 147.997,240.469 148.920,239.819 149.800 C 239.170 150.680,238.152 151.940,237.557 152.600 C 236.140 154.172,231.724 159.467,230.200 161.422 C 229.540 162.268,228.550 163.428,228.000 164.000 C 227.450 164.572,226.470 165.751,225.821 166.620 C 225.173 167.489,224.542 168.290,224.420 168.400 C 224.113 168.677,222.065 171.110,220.464 173.100 C 219.729 174.014,218.764 175.175,218.319 175.681 C 217.874 176.186,216.856 177.410,216.055 178.400 C 215.255 179.390,214.505 180.290,214.390 180.400 C 214.274 180.510,212.753 182.310,211.011 184.400 C 209.268 186.490,207.698 188.260,207.521 188.333 C 207.345 188.407,207.196 188.677,207.191 188.933 C 207.186 189.190,206.421 190.236,205.491 191.257 C 204.561 192.279,203.260 193.802,202.600 194.643 C 201.316 196.278,199.307 198.674,198.519 199.510 C 198.254 199.790,197.354 200.870,196.519 201.910 C 195.683 202.949,194.900 203.890,194.777 204.000 C 194.654 204.110,194.274 204.609,193.933 205.109 C 193.592 205.608,192.701 206.688,191.953 207.509 C 191.205 208.329,189.604 210.260,188.396 211.800 C 187.188 213.340,185.712 215.140,185.115 215.800 C 184.519 216.460,182.479 218.890,180.582 221.200 C 177.517 224.932,174.561 228.452,173.400 229.753 C 173.180 229.999,172.317 231.051,171.481 232.091 C 170.646 233.130,169.746 234.210,169.481 234.491 C 169.217 234.771,168.317 235.851,167.481 236.891 C 166.646 237.930,165.735 239.010,165.456 239.290 C 165.177 239.571,164.330 240.629,163.574 241.643 C 162.818 242.656,160.248 245.806,157.863 248.643 C 155.478 251.479,153.224 254.160,152.855 254.600 C 152.486 255.040,150.932 256.930,149.400 258.800 C 144.190 265.161,144.862 264.965,141.996 260.958 C 140.799 259.284,139.411 257.439,138.911 256.858 C 138.410 256.276,138.001 255.689,138.000 255.554 C 138.000 255.419,137.467 254.699,136.816 253.954 C 136.164 253.209,135.399 252.150,135.116 251.600 C 134.832 251.050,134.403 250.420,134.162 250.200 C 133.921 249.980,132.724 248.360,131.501 246.600 C 129.583 243.838,127.680 241.261,126.473 239.790 C 126.287 239.564,125.794 238.844,125.377 238.190 C 124.960 237.535,124.523 236.910,124.407 236.800 C 124.291 236.690,123.395 235.520,122.417 234.200 C 118.634 229.096,114.980 227.617,110.975 229.567 C 109.202 230.431,106.800 232.635,106.800 233.398 C 106.800 233.675,106.530 234.126,106.200 234.400 C 105.001 235.395,105.755 241.529,107.232 242.800 C 107.360 242.910,108.883 244.980,110.616 247.400 C 112.350 249.820,114.088 252.147,114.479 252.571 C 114.871 252.994,115.295 253.669,115.422 254.071 C 115.550 254.472,115.810 254.800,116.000 254.800 C 116.190 254.800,116.450 255.128,116.578 255.529 C 116.705 255.931,117.122 256.606,117.505 257.030 C 118.800 258.465,120.400 260.744,120.400 261.153 C 120.400 261.377,120.631 261.704,120.914 261.880 C 121.196 262.056,122.138 263.190,123.006 264.400 C 123.873 265.610,124.812 266.838,125.092 267.129 C 125.371 267.419,125.600 267.779,125.601 267.929 C 125.601 268.078,126.141 268.830,126.800 269.600 C 127.459 270.370,127.999 271.111,127.999 271.246 C 128.000 271.381,128.537 272.101,129.194 272.846 C 129.850 273.591,130.390 274.403,130.394 274.651 C 130.397 274.899,130.654 275.313,130.965 275.571 C 131.276 275.829,132.838 277.876,134.436 280.120 C 138.691 286.095,140.217 287.200,144.211 287.200 C 147.657 287.200,149.539 285.900,153.936 280.484 C 154.671 279.579,155.600 278.461,156.000 278.000 C 156.400 277.539,157.329 276.421,158.064 275.516 C 159.237 274.071,166.246 265.584,168.070 263.400 C 168.437 262.960,169.781 261.340,171.056 259.800 C 172.330 258.260,173.470 256.910,173.587 256.800 C 173.704 256.690,174.455 255.790,175.255 254.800 C 176.056 253.810,177.074 252.586,177.519 252.081 C 177.964 251.575,178.929 250.416,179.664 249.504 C 182.219 246.336,187.338 240.199,187.591 240.000 C 187.732 239.890,188.106 239.421,188.423 238.957 C 188.740 238.494,189.753 237.234,190.674 236.157 C 191.594 235.081,193.004 233.390,193.807 232.400 C 194.610 231.410,195.568 230.240,195.935 229.800 C 196.302 229.360,197.412 228.010,198.401 226.800 C 199.390 225.590,200.295 224.510,200.412 224.400 C 200.528 224.290,202.053 222.490,203.800 220.400 C 205.547 218.310,207.072 216.510,207.188 216.400 C 207.305 216.290,208.083 215.349,208.919 214.310 C 209.754 213.270,210.654 212.190,210.919 211.910 C 211.183 211.629,211.933 210.680,212.585 209.800 C 213.237 208.920,214.857 206.928,216.185 205.374 C 220.084 200.810,222.159 198.336,222.800 197.487 C 223.130 197.049,224.042 195.951,224.827 195.046 C 226.419 193.210,231.948 186.516,233.800 184.183 C 234.460 183.351,235.495 182.153,236.100 181.521 C 236.705 180.889,237.201 180.244,237.203 180.086 C 237.205 179.929,238.060 178.888,239.103 177.773 C 240.146 176.658,241.533 175.038,242.186 174.173 C 242.838 173.308,243.558 172.405,243.786 172.166 C 244.013 171.927,244.830 170.946,245.600 169.986 C 247.029 168.204,249.238 165.560,249.599 165.200 C 249.786 165.013,252.646 161.537,253.999 159.851 C 254.330 159.439,254.880 158.809,255.221 158.451 C 255.563 158.093,256.794 156.585,257.956 155.100 C 259.118 153.615,260.204 152.400,260.370 152.400 C 260.536 152.400,260.866 151.995,261.103 151.500 C 261.340 151.005,262.494 149.492,263.667 148.138 C 264.840 146.783,266.070 145.325,266.400 144.897 C 266.730 144.468,267.749 143.237,268.665 142.159 C 274.369 135.448,279.124 129.735,279.905 128.653 C 280.403 127.964,281.516 126.590,282.377 125.600 C 283.996 123.739,287.555 119.444,290.000 116.400 C 290.770 115.441,291.760 114.284,292.201 113.828 C 292.642 113.373,293.630 112.190,294.397 111.200 C 295.164 110.210,296.212 108.950,296.725 108.400 C 302.175 102.562,301.905 95.801,296.091 92.500 C 294.925 91.838,289.304 91.924,287.983 92.624 " stroke="none" fill="#f1f2f2" fill-rule="evenodd"></path><path id="path2" d="M289.417 91.068 C 287.661 91.567,285.552 93.374,282.200 97.250 C 281.540 98.013,280.656 99.035,280.236 99.521 C 279.815 100.007,279.562 100.496,279.673 100.607 C 279.784 100.718,280.693 99.772,281.693 98.504 C 287.014 91.760,290.878 89.890,295.513 91.819 C 296.903 92.397,296.957 92.394,296.335 91.768 C 295.648 91.077,291.030 90.610,289.417 91.068 M298.471 93.819 C 299.812 95.261,300.868 97.322,301.330 99.400 C 301.459 99.983,301.520 99.900,301.554 99.095 C 301.579 98.487,301.447 97.677,301.261 97.295 C 300.086 94.892,299.512 94.093,298.328 93.219 L 297.000 92.239 298.471 93.819 M301.260 101.067 C 301.227 101.544,301.084 102.264,300.941 102.667 C 300.742 103.231,300.795 103.296,301.172 102.949 C 301.442 102.701,301.585 101.981,301.491 101.349 C 301.370 100.539,301.302 100.456,301.260 101.067 M277.329 103.213 C 276.488 104.320,275.108 105.985,274.262 106.913 C 273.416 107.841,272.257 109.230,271.685 110.000 C 271.113 110.770,270.197 111.895,269.648 112.500 C 269.099 113.105,268.765 113.600,268.905 113.600 C 269.273 113.600,277.850 103.460,278.801 101.900 C 279.650 100.508,278.825 101.244,277.329 103.213 M300.034 104.718 C 299.748 105.408,299.263 106.181,298.957 106.436 C 298.651 106.690,298.400 107.091,298.400 107.328 C 298.400 107.564,298.955 107.003,299.634 106.080 C 300.312 105.157,300.797 104.191,300.711 103.932 C 300.625 103.674,300.320 104.027,300.034 104.718 M297.311 108.371 C 296.935 108.973,294.460 111.967,289.252 118.117 C 288.703 118.766,288.710 118.810,289.322 118.574 C 289.695 118.431,290.000 118.178,290.000 118.012 C 290.000 117.845,290.410 117.280,290.911 116.755 C 291.412 116.230,292.293 115.170,292.870 114.400 C 293.447 113.630,294.253 112.640,294.663 112.200 C 296.074 110.683,298.096 107.963,297.933 107.800 C 297.843 107.710,297.563 107.967,297.311 108.371 M266.691 115.932 C 265.880 116.995,264.808 118.317,264.309 118.869 C 263.809 119.421,262.860 120.570,262.200 121.422 C 260.958 123.026,258.768 125.649,258.380 126.000 C 258.258 126.110,257.638 126.920,257.003 127.800 C 255.544 129.824,256.428 128.947,259.224 125.600 C 260.418 124.170,261.486 122.910,261.598 122.800 C 261.802 122.598,264.890 118.839,265.999 117.443 C 266.330 117.027,267.114 116.082,267.741 115.343 C 268.369 114.604,268.721 114.000,268.524 114.000 C 268.326 114.000,267.501 114.870,266.691 115.932 M286.585 121.286 C 285.713 122.433,284.841 123.648,284.646 123.986 C 284.111 124.915,285.666 123.214,287.010 121.400 C 287.662 120.520,288.376 119.668,288.598 119.506 C 288.865 119.311,288.860 119.210,288.585 119.206 C 288.357 119.203,287.457 120.138,286.585 121.286 M281.159 127.900 C 279.785 129.605,277.860 131.945,276.882 133.100 C 275.903 134.255,275.260 135.193,275.451 135.184 C 275.643 135.175,276.520 134.253,277.400 133.135 C 278.280 132.017,279.326 130.720,279.724 130.251 C 280.123 129.783,280.756 129.040,281.131 128.600 C 282.516 126.977,284.088 124.800,283.877 124.800 C 283.756 124.800,282.534 126.195,281.159 127.900 M254.788 130.300 C 254.463 130.685,253.388 131.984,252.399 133.186 C 251.410 134.389,250.287 135.726,249.904 136.157 C 249.522 136.589,249.297 137.030,249.404 137.138 C 249.512 137.245,249.660 137.258,249.733 137.167 C 252.998 133.078,255.448 130.135,255.777 129.906 C 256.056 129.712,256.060 129.610,255.789 129.606 C 255.563 129.603,255.112 129.915,254.788 130.300 M274.014 136.477 C 273.565 136.960,272.363 138.445,271.344 139.777 C 269.331 142.411,270.747 141.054,273.524 137.689 C 275.243 135.605,275.563 134.814,274.014 136.477 M248.398 137.900 C 248.397 138.065,247.838 138.796,247.155 139.524 C 246.473 140.252,245.989 140.923,246.081 141.014 C 246.172 141.106,246.920 140.375,247.743 139.390 C 248.566 138.406,249.051 137.600,248.820 137.600 C 248.589 137.600,248.399 137.735,248.398 137.900 M243.426 144.100 C 241.310 146.554,241.133 146.800,241.489 146.800 C 241.666 146.800,242.584 145.810,243.529 144.600 C 245.566 141.992,245.505 141.691,243.426 144.100 M267.448 144.335 C 265.691 146.729,265.558 147.331,267.200 145.461 C 267.860 144.709,268.400 143.908,268.400 143.681 C 268.400 143.453,268.625 143.186,268.900 143.088 C 269.175 142.990,269.287 142.786,269.148 142.636 C 269.009 142.486,268.244 143.250,267.448 144.335 M239.451 148.900 C 238.657 149.835,237.807 150.837,237.563 151.126 C 237.319 151.416,237.198 151.731,237.294 151.828 C 237.391 151.924,238.309 150.922,239.334 149.601 C 241.492 146.823,241.560 146.420,239.451 148.900 M262.759 150.067 C 260.833 152.454,255.080 159.361,254.818 159.600 C 254.698 159.710,253.798 160.790,252.819 162.000 C 251.839 163.210,250.242 165.145,249.270 166.300 C 248.298 167.455,247.660 168.399,247.851 168.397 C 248.043 168.396,248.606 167.811,249.102 167.097 C 249.599 166.384,250.657 165.080,251.455 164.200 C 252.252 163.320,253.556 161.790,254.353 160.801 C 255.149 159.811,256.017 158.771,256.281 158.491 C 256.546 158.210,257.446 157.130,258.281 156.091 C 259.117 155.051,260.017 153.971,260.281 153.691 C 260.546 153.410,261.446 152.330,262.281 151.290 C 263.117 150.251,263.975 149.275,264.188 149.122 C 264.402 148.969,264.473 148.740,264.347 148.614 C 264.221 148.487,263.506 149.142,262.759 150.067 M234.941 154.270 C 231.421 158.541,229.012 161.412,228.792 161.600 C 228.663 161.710,228.051 162.475,227.431 163.300 C 225.408 165.995,226.688 164.875,229.260 161.700 C 230.641 159.995,231.870 158.510,231.991 158.400 C 232.112 158.290,233.018 157.210,234.004 156.000 C 234.990 154.790,236.022 153.562,236.298 153.271 C 236.802 152.740,236.936 152.400,236.641 152.400 C 236.554 152.400,235.789 153.241,234.941 154.270 M224.600 166.692 C 223.940 167.480,223.165 168.457,222.877 168.863 C 221.880 170.270,222.657 169.589,224.547 167.400 C 225.591 166.190,226.301 165.213,226.123 165.229 C 225.945 165.245,225.260 165.903,224.600 166.692 M244.979 171.500 C 243.747 172.985,242.551 174.560,242.320 175.000 L 241.901 175.800 242.663 175.000 C 243.082 174.560,243.958 173.480,244.610 172.600 C 245.262 171.720,245.886 170.910,245.998 170.800 C 246.768 170.038,247.680 168.800,247.471 168.800 C 247.332 168.800,246.210 170.015,244.979 171.500 M220.200 172.068 C 219.320 173.188,218.108 174.666,217.506 175.352 C 216.905 176.038,216.410 176.752,216.406 176.938 C 216.403 177.124,217.039 176.494,217.819 175.538 C 218.600 174.582,219.960 172.945,220.841 171.900 C 221.723 170.855,222.299 170.007,222.122 170.016 C 221.945 170.025,221.080 170.948,220.200 172.068 M236.518 181.700 C 231.798 187.353,230.987 188.400,231.331 188.400 C 231.429 188.400,232.564 187.095,233.854 185.500 C 235.143 183.905,236.290 182.510,236.402 182.400 C 236.697 182.110,240.523 177.525,241.159 176.700 C 241.455 176.315,241.603 176.000,241.488 176.000 C 241.372 176.000,239.136 178.565,236.518 181.700 M215.396 177.740 C 213.458 179.948,211.350 183.155,212.906 181.529 C 213.974 180.413,216.090 177.557,215.948 177.422 C 215.867 177.344,215.618 177.488,215.396 177.740 M210.200 184.102 C 209.320 185.211,208.420 186.317,208.200 186.560 C 207.304 187.552,206.715 188.400,206.922 188.400 C 207.216 188.400,212.100 182.364,211.932 182.209 C 211.859 182.142,211.080 182.994,210.200 184.102 M204.972 190.286 C 204.327 191.103,203.346 192.318,202.790 192.986 C 201.159 194.947,200.689 195.600,200.908 195.600 C 201.021 195.600,202.402 194.070,203.977 192.200 C 205.552 190.330,206.683 188.800,206.492 188.800 C 206.301 188.800,205.616 189.469,204.972 190.286 M228.301 191.640 C 227.037 193.158,226.137 194.388,226.301 194.373 C 226.677 194.339,230.938 189.202,230.743 189.016 C 230.664 188.941,229.566 190.122,228.301 191.640 M218.883 202.900 C 215.159 207.355,212.188 211.085,212.279 211.189 C 212.370 211.293,213.020 210.679,213.722 209.824 C 214.425 208.969,216.492 206.453,218.316 204.235 C 220.140 202.016,222.357 199.368,223.242 198.352 C 225.073 196.251,226.137 194.800,225.849 194.800 C 225.741 194.800,222.606 198.445,218.883 202.900 M199.812 196.763 C 199.679 197.183,199.329 197.618,199.035 197.731 C 198.740 197.844,198.086 198.536,197.582 199.268 L 196.664 200.600 197.968 199.400 C 199.595 197.904,200.987 196.000,200.454 196.000 C 200.234 196.000,199.945 196.343,199.812 196.763 M195.123 202.343 C 194.835 202.751,193.658 204.163,192.507 205.480 C 191.355 206.797,190.012 208.398,189.521 209.037 C 189.029 209.677,188.447 210.325,188.225 210.478 C 188.004 210.631,187.927 210.860,188.053 210.986 C 188.179 211.113,188.894 210.458,189.641 209.531 C 190.389 208.604,191.902 206.755,193.004 205.423 C 195.786 202.059,196.130 201.600,195.872 201.600 C 195.747 201.600,195.410 201.934,195.123 202.343 M185.944 213.300 C 185.216 214.235,184.441 215.125,184.222 215.278 C 184.003 215.431,183.933 215.666,184.067 215.800 C 184.284 216.017,186.626 213.387,187.362 212.100 C 187.973 211.030,187.204 211.681,185.944 213.300 M210.127 213.500 C 209.287 214.545,208.420 215.532,208.200 215.694 C 207.936 215.888,207.940 215.990,208.211 215.994 C 208.650 216.000,209.147 215.476,210.954 213.100 C 212.605 210.929,211.931 211.255,210.127 213.500 M204.523 220.213 C 202.805 222.310,200.590 224.995,199.600 226.180 C 198.610 227.364,197.198 229.113,196.463 230.067 L 195.125 231.800 196.723 230.093 C 197.602 229.154,198.744 227.831,199.260 227.152 C 199.777 226.473,200.560 225.505,201.000 225.002 C 201.440 224.499,202.250 223.573,202.800 222.944 C 203.350 222.315,204.425 220.990,205.190 220.000 C 205.954 219.010,206.674 218.110,206.790 218.000 C 207.350 217.467,208.072 216.400,207.872 216.400 C 207.748 216.400,206.241 218.116,204.523 220.213 M179.931 220.700 C 178.331 222.625,176.837 224.400,176.611 224.645 C 176.385 224.890,175.570 225.860,174.800 226.800 C 174.030 227.740,173.133 228.784,172.807 229.119 C 172.481 229.454,172.415 229.655,172.661 229.564 C 173.055 229.420,175.733 226.323,181.539 219.300 C 182.493 218.145,183.177 217.200,183.057 217.200 C 182.938 217.200,181.531 218.775,179.931 220.700 M113.305 228.287 C 113.914 228.379,114.814 228.377,115.305 228.282 C 115.797 228.187,115.300 228.111,114.200 228.114 C 113.100 228.117,112.697 228.195,113.305 228.287 M107.820 230.606 C 106.411 232.016,104.986 234.319,105.318 234.651 C 105.416 234.749,105.791 234.205,106.153 233.443 C 106.514 232.681,107.573 231.419,108.505 230.637 C 109.437 229.855,109.981 229.212,109.713 229.208 C 109.446 229.204,108.594 229.833,107.820 230.606 M118.895 229.700 C 121.831 232.358,122.483 232.889,121.983 232.219 C 121.177 231.140,119.070 229.226,118.671 229.212 C 118.491 229.205,118.591 229.425,118.895 229.700 M169.846 232.743 C 168.642 234.252,167.413 235.737,167.114 236.043 C 166.815 236.349,166.052 237.320,165.417 238.200 C 163.963 240.216,165.412 238.772,167.719 235.906 C 168.554 234.869,169.460 233.790,169.733 233.510 C 170.639 232.578,172.499 230.000,172.265 230.000 C 172.138 230.000,171.049 231.234,169.846 232.743 M190.961 236.700 C 188.805 239.285,186.942 241.490,186.821 241.600 C 186.699 241.710,185.917 242.651,185.081 243.690 C 184.246 244.730,183.346 245.811,183.081 246.094 C 182.817 246.377,181.451 248.046,180.046 249.804 C 178.642 251.562,178.102 252.370,178.846 251.600 C 179.591 250.830,180.883 249.349,181.719 248.310 C 182.554 247.270,183.461 246.190,183.734 245.910 C 184.008 245.629,185.474 243.870,186.993 242.000 C 188.512 240.130,189.854 238.510,189.977 238.400 C 190.552 237.884,195.233 232.000,195.068 232.000 C 194.965 232.000,193.117 234.115,190.961 236.700 M123.244 234.500 C 123.738 235.215,124.969 236.880,125.978 238.200 C 126.988 239.520,128.157 241.135,128.575 241.790 C 128.994 242.444,129.665 243.333,130.068 243.765 C 130.471 244.197,130.800 244.673,130.800 244.821 C 130.800 244.970,131.366 245.701,132.059 246.446 C 133.625 248.131,133.422 247.819,128.781 241.400 C 126.713 238.540,124.881 236.140,124.710 236.067 C 124.540 235.993,124.394 235.723,124.387 235.467 C 124.372 234.937,123.009 233.200,122.609 233.200 C 122.464 233.200,122.750 233.785,123.244 234.500 M104.572 236.971 C 104.437 237.505,104.519 238.270,104.752 238.671 C 105.099 239.268,105.178 239.092,105.188 237.700 C 105.201 235.805,104.941 235.498,104.572 236.971 M105.232 240.468 C 105.196 241.229,106.451 243.594,106.893 243.597 C 107.054 243.599,106.859 243.015,106.458 242.300 C 106.058 241.585,105.625 240.730,105.497 240.400 C 105.304 239.904,105.258 239.916,105.232 240.468 M162.572 241.486 C 161.431 242.933,159.204 245.598,158.801 246.000 C 158.690 246.110,157.451 247.640,156.046 249.400 C 154.642 251.160,154.102 251.970,154.846 251.200 C 155.591 250.430,156.855 248.990,157.655 248.000 C 158.456 247.010,159.511 245.750,160.000 245.200 C 160.489 244.650,161.544 243.390,162.345 242.400 C 163.145 241.410,163.980 240.468,164.200 240.306 C 164.460 240.115,164.451 240.010,164.172 240.006 C 163.936 240.003,163.216 240.669,162.572 241.486 M107.919 245.197 C 108.293 245.856,108.747 246.396,108.927 246.397 C 109.107 246.399,108.870 245.860,108.400 245.200 C 107.302 243.658,107.042 243.657,107.919 245.197 M109.988 247.923 C 110.482 248.651,110.976 249.157,111.084 249.049 C 111.192 248.941,110.788 248.346,110.184 247.726 L 109.088 246.600 109.988 247.923 M134.000 249.200 C 135.098 250.742,135.358 250.743,134.481 249.203 C 134.107 248.544,133.653 248.004,133.473 248.003 C 133.293 248.001,133.530 248.540,134.000 249.200 M112.794 251.800 C 115.499 255.668,115.573 255.761,115.775 255.559 C 115.881 255.452,115.525 254.850,114.984 254.221 C 114.443 253.591,113.993 252.969,113.985 252.838 C 113.977 252.707,113.328 251.880,112.543 251.000 C 111.181 249.473,111.193 249.510,112.794 251.800 M136.638 252.900 C 137.466 254.055,138.703 255.720,139.387 256.600 C 140.070 257.480,140.969 258.737,141.385 259.393 C 141.801 260.050,142.559 261.038,143.070 261.589 C 143.582 262.141,144.000 262.729,144.000 262.896 C 144.000 263.999,145.603 262.605,148.826 258.700 C 150.869 256.225,152.807 253.885,153.132 253.500 C 153.458 253.115,153.547 252.800,153.330 252.800 C 153.113 252.800,152.325 253.655,151.578 254.700 C 150.831 255.745,149.735 257.140,149.141 257.800 C 147.613 259.497,146.715 260.578,145.844 261.768 C 144.774 263.229,144.690 263.179,141.907 259.374 C 140.528 257.489,138.635 254.938,137.700 253.704 C 136.765 252.470,136.000 251.312,136.000 251.130 C 136.000 250.949,135.805 250.800,135.566 250.800 C 135.327 250.800,135.810 251.745,136.638 252.900 M176.218 254.313 C 175.787 254.911,172.772 258.587,169.518 262.483 C 166.263 266.379,163.600 269.692,163.600 269.844 C 163.600 269.997,163.915 269.760,164.300 269.318 C 166.523 266.763,167.914 265.106,168.800 263.956 C 169.350 263.243,169.981 262.466,170.202 262.230 C 170.423 261.993,171.410 260.810,172.396 259.600 C 173.382 258.390,174.288 257.310,174.408 257.200 C 175.245 256.436,177.629 253.202,177.348 253.213 C 177.157 253.219,176.648 253.714,176.218 254.313 M116.013 256.278 C 116.032 256.721,117.583 258.551,117.776 258.357 C 117.862 258.270,117.497 257.695,116.966 257.078 C 116.435 256.460,116.006 256.100,116.013 256.278 M118.028 259.000 C 118.026 259.508,119.562 261.371,119.792 261.141 C 119.887 261.046,119.529 260.436,118.997 259.784 C 118.464 259.133,118.028 258.780,118.028 259.000 M121.437 263.700 C 122.269 264.855,123.491 266.565,124.152 267.500 C 124.813 268.435,125.512 269.200,125.706 269.200 C 125.899 269.200,125.819 268.947,125.529 268.638 C 125.238 268.329,123.939 266.619,122.643 264.838 C 121.346 263.057,120.204 261.600,120.105 261.600 C 120.006 261.600,120.606 262.545,121.437 263.700 M126.000 269.836 C 126.000 270.267,128.194 273.183,128.525 273.191 C 128.704 273.196,128.268 272.390,127.557 271.400 C 126.300 269.649,126.000 269.348,126.000 269.836 M161.923 271.534 C 161.635 271.938,160.649 273.153,159.732 274.234 C 158.815 275.315,156.512 278.090,154.614 280.400 C 152.717 282.710,150.594 285.095,149.897 285.700 C 149.200 286.305,148.822 286.800,149.057 286.800 C 149.523 286.800,152.691 283.495,154.600 281.016 C 155.260 280.159,155.980 279.265,156.200 279.029 C 156.420 278.792,157.269 277.766,158.086 276.749 C 158.904 275.731,160.294 274.111,161.176 273.149 C 162.633 271.559,163.100 270.800,162.623 270.800 C 162.525 270.800,162.210 271.130,161.923 271.534 M130.300 275.865 C 130.575 275.976,130.800 276.279,130.800 276.537 C 130.800 276.796,131.205 277.456,131.700 278.004 C 132.889 279.320,134.800 281.888,134.800 282.170 C 134.800 282.969,138.555 286.593,140.184 287.365 C 141.932 288.195,146.750 288.225,147.824 287.413 C 148.251 287.090,148.386 286.820,148.124 286.813 C 147.862 286.806,147.536 286.980,147.400 287.200 C 146.950 287.928,141.707 287.671,140.084 286.842 C 138.539 286.052,136.654 284.188,135.363 282.174 C 134.949 281.528,134.425 280.804,134.198 280.565 C 133.972 280.325,133.085 279.110,132.227 277.865 C 131.369 276.619,130.472 275.614,130.234 275.632 C 129.991 275.649,130.021 275.752,130.300 275.865 " stroke="none" fill="#53a679" fill-rule="evenodd"></path><path id="path3" d="M288.224 92.213 C 287.796 92.536,287.651 92.800,287.900 92.800 C 288.149 92.800,288.464 92.620,288.600 92.400 C 288.736 92.180,290.356 92.000,292.200 92.000 C 294.044 92.000,295.664 92.180,295.800 92.400 C 295.936 92.620,296.251 92.800,296.500 92.800 C 296.749 92.800,296.604 92.536,296.176 92.213 C 295.644 91.810,294.394 91.625,292.200 91.625 C 290.006 91.625,288.756 91.810,288.224 92.213 M284.963 94.900 C 282.466 97.508,279.836 100.806,280.273 100.781 C 280.453 100.771,281.140 100.046,281.800 99.171 C 283.682 96.673,283.701 96.651,285.583 94.673 C 286.564 93.643,287.278 92.800,287.170 92.800 C 287.061 92.800,286.068 93.745,284.963 94.900 M298.234 94.143 C 298.372 94.505,298.602 94.800,298.745 94.800 C 298.888 94.800,299.248 95.350,299.546 96.023 C 299.844 96.696,300.171 97.162,300.273 97.060 C 300.540 96.793,299.368 94.637,298.617 94.014 C 298.075 93.565,298.019 93.584,298.234 94.143 M300.650 99.250 C 301.029 102.114,299.699 105.214,296.725 108.400 C 295.368 109.854,293.200 112.672,293.200 112.981 C 293.200 113.287,297.690 107.845,299.237 105.663 C 301.039 103.122,301.776 99.502,300.797 98.000 C 300.528 97.587,300.482 97.978,300.650 99.250 M278.127 103.100 C 277.287 104.145,276.510 105.093,276.400 105.206 C 275.093 106.555,273.929 108.049,274.395 107.779 C 275.035 107.409,275.765 106.585,278.360 103.300 C 279.272 102.145,279.936 101.200,279.836 101.200 C 279.736 101.200,278.967 102.055,278.127 103.100 M272.227 110.141 C 271.442 111.099,270.800 112.005,270.800 112.155 C 270.800 112.405,272.249 110.800,273.559 109.100 C 274.706 107.611,273.578 108.492,272.227 110.141 M291.993 113.976 C 291.667 114.374,290.770 115.477,290.000 116.427 C 289.230 117.377,287.698 119.245,286.596 120.577 C 283.805 123.951,283.470 124.400,283.734 124.400 C 283.862 124.400,284.951 123.166,286.154 121.657 C 287.358 120.148,288.582 118.663,288.873 118.357 C 290.271 116.888,292.884 113.550,292.744 113.411 C 292.658 113.324,292.320 113.579,291.993 113.976 M265.595 118.093 C 262.187 122.145,260.140 124.885,262.264 122.552 C 264.997 119.550,269.284 114.351,269.143 114.210 C 269.058 114.125,267.462 115.872,265.595 118.093 M258.857 126.300 C 257.904 127.565,257.636 128.046,258.262 127.369 C 260.259 125.210,261.203 124.000,260.892 124.000 C 260.726 124.000,259.810 125.035,258.857 126.300 M281.772 126.264 C 281.127 127.069,280.240 128.217,279.800 128.815 C 279.360 129.413,276.887 132.399,274.305 135.451 C 271.723 138.503,269.608 141.152,269.605 141.337 C 269.602 141.522,270.448 140.622,271.484 139.337 C 272.521 138.052,274.818 135.290,276.589 133.200 C 278.360 131.110,280.284 128.770,280.864 128.000 C 281.444 127.230,282.304 126.195,282.775 125.700 C 283.246 125.205,283.477 124.800,283.288 124.800 C 283.099 124.800,282.416 125.459,281.772 126.264 M253.527 132.700 C 249.883 137.174,249.645 137.462,246.991 140.574 C 245.666 142.128,244.136 143.958,243.591 144.641 C 243.046 145.323,241.650 147.033,240.490 148.441 C 239.329 149.848,238.197 151.225,237.974 151.500 C 237.751 151.775,237.725 152.000,237.916 152.000 C 238.108 152.000,238.874 151.145,239.618 150.100 C 240.362 149.055,241.168 147.997,241.408 147.749 C 242.066 147.070,250.869 136.565,252.396 134.637 C 252.728 134.218,253.545 133.228,254.211 132.437 C 256.024 130.284,256.522 129.600,256.275 129.600 C 256.152 129.600,254.915 130.995,253.527 132.700 M267.364 143.700 C 266.724 144.415,265.930 145.384,265.600 145.853 C 265.270 146.322,264.055 147.816,262.900 149.173 C 261.745 150.531,260.800 151.839,260.800 152.081 C 260.800 152.322,261.362 151.728,262.049 150.760 C 262.736 149.792,263.877 148.370,264.583 147.600 C 266.296 145.733,268.943 142.400,268.712 142.400 C 268.611 142.400,268.005 142.985,267.364 143.700 M236.164 153.716 C 233.904 156.270,231.430 159.394,232.069 158.886 C 232.808 158.298,237.740 152.400,237.492 152.400 C 237.402 152.400,236.805 152.992,236.164 153.716 M258.576 154.300 C 257.112 156.130,257.104 156.156,258.362 155.000 C 259.563 153.897,260.657 152.400,260.262 152.400 C 260.171 152.400,259.412 153.255,258.576 154.300 M255.576 158.028 C 253.692 160.274,253.681 160.292,254.743 159.396 C 255.664 158.619,257.409 156.400,257.098 156.400 C 257.013 156.400,256.328 157.133,255.576 158.028 M229.727 161.312 C 229.026 162.241,228.074 163.405,227.611 163.900 C 227.148 164.395,226.923 164.800,227.112 164.800 C 227.301 164.800,227.984 164.138,228.628 163.329 C 229.273 162.520,229.980 161.665,230.200 161.428 C 231.185 160.366,231.670 159.601,231.349 159.612 C 231.157 159.619,230.427 160.384,229.727 161.312 M252.998 160.965 C 252.779 161.276,252.000 162.266,251.266 163.165 C 249.289 165.590,250.006 165.147,252.182 162.600 C 253.216 161.390,253.912 160.400,253.729 160.400 C 253.546 160.400,253.217 160.654,252.998 160.965 M224.503 167.700 C 223.382 169.075,222.136 170.566,221.733 171.014 C 221.330 171.461,220.198 172.811,219.219 174.014 C 218.239 175.216,216.642 177.145,215.670 178.300 C 214.698 179.455,214.060 180.399,214.251 180.397 C 214.443 180.396,215.006 179.811,215.502 179.097 C 215.999 178.384,216.989 177.154,217.702 176.364 C 218.416 175.574,219.630 174.143,220.400 173.183 C 222.036 171.146,224.103 168.686,224.420 168.400 C 224.896 167.972,226.885 165.200,226.717 165.200 C 226.620 165.200,225.623 166.325,224.503 167.700 M247.800 167.268 C 246.920 168.388,245.708 169.866,245.106 170.552 C 244.505 171.238,244.010 171.941,244.006 172.114 C 244.003 172.287,244.503 171.837,245.118 171.114 C 248.959 166.601,250.058 165.202,249.749 165.216 C 249.557 165.225,248.680 166.148,247.800 167.268 M242.274 174.033 C 241.655 174.895,241.228 175.600,241.327 175.600 C 241.603 175.600,243.699 172.766,243.540 172.607 C 243.463 172.530,242.893 173.172,242.274 174.033 M239.000 177.862 C 238.120 178.886,237.343 179.921,237.274 180.162 C 237.205 180.403,237.537 180.150,238.011 179.600 C 238.485 179.050,239.401 178.015,240.046 177.300 C 240.691 176.585,241.080 176.000,240.910 176.000 C 240.739 176.000,239.880 176.838,239.000 177.862 M235.989 181.513 C 234.634 183.153,234.312 183.600,234.487 183.600 C 234.588 183.600,235.245 182.970,235.945 182.200 C 236.646 181.430,237.075 180.800,236.899 180.800 C 236.722 180.800,236.313 181.121,235.989 181.513 M209.749 185.484 C 208.677 186.740,208.009 187.639,208.264 187.483 C 208.823 187.139,212.154 183.200,211.886 183.200 C 211.782 183.200,210.820 184.228,209.749 185.484 M232.988 185.100 L 232.285 186.200 233.342 185.230 C 234.486 184.182,234.590 184.000,234.046 184.000 C 233.851 184.000,233.375 184.495,232.988 185.100 M205.777 190.289 C 205.153 191.120,204.453 191.932,204.221 192.094 C 203.961 192.276,203.953 192.387,204.200 192.387 C 204.687 192.385,207.361 189.228,207.098 188.965 C 206.996 188.862,206.401 189.458,205.777 190.289 M226.756 192.774 C 224.910 194.959,223.130 197.093,222.800 197.515 C 222.116 198.389,219.701 201.259,216.185 205.374 C 213.396 208.638,210.842 212.049,212.431 210.387 C 212.964 209.830,214.210 208.390,215.199 207.187 C 216.188 205.984,217.358 204.562,217.799 204.026 C 218.240 203.490,219.680 201.779,221.000 200.224 C 222.320 198.669,224.083 196.547,224.919 195.509 C 225.754 194.470,226.654 193.390,226.919 193.109 C 227.883 192.087,230.449 188.800,230.283 188.800 C 230.189 188.800,228.602 190.588,226.756 192.774 M202.131 194.700 C 201.294 195.745,199.609 197.770,198.387 199.200 C 196.256 201.695,194.604 203.916,196.142 202.219 C 197.916 200.263,200.857 196.833,201.679 195.763 C 202.171 195.123,202.669 194.510,202.786 194.400 C 203.334 193.888,204.075 192.800,203.876 192.800 C 203.754 192.800,202.968 193.655,202.131 194.700 M192.218 206.600 C 191.184 207.810,190.448 208.800,190.581 208.800 C 190.838 208.800,193.038 206.390,193.923 205.139 C 194.960 203.673,194.058 204.445,192.218 206.600 M188.000 211.700 C 186.861 213.075,185.587 214.605,185.168 215.100 C 184.748 215.595,184.544 216.000,184.714 216.000 C 185.061 216.000,185.334 215.691,188.334 211.898 C 191.021 208.502,190.770 208.353,188.000 211.700 M209.759 213.300 C 208.007 215.321,207.487 216.000,207.690 216.000 C 207.807 216.000,208.567 215.190,209.379 214.200 C 210.881 212.366,211.179 211.663,209.759 213.300 M182.752 218.080 C 181.339 219.836,179.146 222.456,178.801 222.800 C 177.971 223.627,175.200 227.205,175.200 227.449 C 175.200 227.617,175.695 227.147,176.300 226.406 C 176.905 225.664,178.750 223.424,180.401 221.429 C 184.234 216.793,184.539 216.400,184.301 216.400 C 184.193 216.400,183.496 217.156,182.752 218.080 M205.829 217.962 L 204.658 219.400 206.009 218.113 C 206.751 217.405,207.278 216.758,207.179 216.675 C 207.081 216.592,206.473 217.171,205.829 217.962 M202.558 221.900 C 201.491 223.165,200.434 224.332,200.209 224.494 C 199.984 224.656,199.957 224.791,200.150 224.794 C 200.485 224.800,203.237 221.859,204.323 220.334 C 205.402 218.818,204.428 219.682,202.558 221.900 M198.688 226.500 C 198.135 227.215,197.348 228.166,196.941 228.614 C 196.008 229.639,193.177 233.141,192.426 234.200 C 191.563 235.416,193.601 233.240,195.286 231.146 C 196.104 230.130,197.494 228.511,198.376 227.549 C 199.806 225.988,200.300 225.200,199.847 225.200 C 199.764 225.200,199.242 225.785,198.688 226.500 M173.000 229.694 C 172.120 230.829,170.794 232.441,170.053 233.278 C 169.313 234.115,168.863 234.793,169.053 234.784 C 169.244 234.775,170.120 233.852,171.000 232.732 C 171.880 231.612,173.092 230.134,173.694 229.448 C 174.620 228.391,175.079 227.555,174.700 227.616 C 174.645 227.625,173.880 228.560,173.000 229.694 M113.305 228.687 C 113.914 228.779,114.814 228.777,115.305 228.682 C 115.797 228.587,115.300 228.511,114.200 228.514 C 113.100 228.517,112.697 228.595,113.305 228.687 M108.600 230.612 C 107.940 231.153,107.554 231.597,107.742 231.598 C 107.930 231.599,108.619 231.150,109.273 230.600 C 109.927 230.050,110.313 229.606,110.131 229.614 C 109.949 229.622,109.260 230.071,108.600 230.612 M120.811 231.871 C 120.817 232.052,121.369 232.830,122.038 233.600 C 123.158 234.889,123.197 234.905,122.532 233.800 C 121.692 232.403,120.795 231.398,120.811 231.871 M106.926 232.500 C 106.155 233.699,105.662 234.809,105.992 234.605 C 106.188 234.484,106.617 233.848,106.944 233.192 C 107.540 231.997,107.529 231.562,106.926 232.500 M123.612 235.798 C 124.550 237.072,125.200 237.686,125.200 237.298 C 125.200 237.101,124.710 236.503,124.112 235.970 C 123.314 235.258,123.181 235.213,123.612 235.798 M166.863 237.172 C 165.948 238.256,165.200 239.252,165.200 239.386 C 165.200 239.596,166.062 238.639,168.342 235.900 C 168.662 235.515,168.834 235.200,168.725 235.200 C 168.615 235.200,167.777 236.087,166.863 237.172 M190.200 236.681 C 188.433 238.862,187.757 239.986,189.064 238.569 C 191.059 236.408,192.003 235.200,191.697 235.200 C 191.534 235.200,190.860 235.866,190.200 236.681 M105.293 237.600 C 105.293 238.370,105.375 238.685,105.476 238.300 C 105.576 237.915,105.576 237.285,105.476 236.900 C 105.375 236.515,105.293 236.830,105.293 237.600 M125.651 238.698 C 125.953 239.083,126.425 239.635,126.700 239.927 C 126.975 240.219,127.207 240.579,127.215 240.729 C 127.223 240.878,127.875 241.720,128.664 242.600 L 130.098 244.200 128.566 242.000 C 127.724 240.790,126.757 239.401,126.418 238.913 C 126.078 238.424,125.643 238.019,125.451 238.013 C 125.259 238.006,125.349 238.314,125.651 238.698 M105.645 240.200 C 105.631 241.039,109.691 247.200,110.257 247.200 C 110.468 247.200,108.243 243.914,107.501 243.130 C 107.226 242.838,106.697 241.970,106.326 241.200 C 105.955 240.430,105.648 239.980,105.645 240.200 M162.246 242.743 C 161.042 244.252,159.819 245.737,159.528 246.043 C 159.238 246.350,158.317 247.451,157.481 248.491 C 156.646 249.530,155.742 250.610,155.472 250.890 C 155.203 251.171,153.842 252.840,152.449 254.600 C 149.002 258.956,151.972 255.716,157.600 248.981 C 162.441 243.188,164.933 240.000,164.621 240.000 C 164.518 240.000,163.449 241.234,162.246 242.743 M185.955 241.900 C 185.408 242.505,184.098 244.080,183.043 245.400 L 181.124 247.800 182.939 245.887 C 184.874 243.846,187.372 240.800,187.108 240.800 C 187.021 240.800,186.502 241.295,185.955 241.900 M132.062 247.300 C 133.218 249.005,134.352 250.397,134.582 250.394 C 134.857 250.390,134.863 250.288,134.599 250.094 C 134.378 249.932,133.706 249.080,133.104 248.200 C 132.503 247.320,131.549 246.060,130.985 245.400 C 130.421 244.740,130.905 245.595,132.062 247.300 M111.616 249.363 C 112.368 250.409,113.156 251.373,113.367 251.503 C 113.578 251.633,113.135 250.884,112.384 249.837 C 111.632 248.791,110.844 247.827,110.633 247.697 C 110.422 247.567,110.865 248.316,111.616 249.363 M179.552 249.647 C 178.808 250.553,178.127 251.491,178.039 251.731 C 177.891 252.132,179.476 250.366,180.759 248.700 C 181.859 247.272,180.856 248.059,179.552 249.647 M134.800 250.996 C 134.800 251.332,136.559 253.776,137.486 254.729 C 137.768 255.019,138.000 255.390,138.000 255.553 C 138.000 255.716,138.318 256.198,138.706 256.625 C 139.094 257.051,140.100 258.345,140.940 259.500 C 141.781 260.655,142.558 261.600,142.668 261.600 C 142.870 261.600,141.185 259.198,138.216 255.254 C 137.327 254.074,136.314 252.677,135.964 252.151 C 135.152 250.931,134.800 250.581,134.800 250.996 M115.248 254.422 C 117.000 256.920,118.249 258.187,116.951 256.149 C 116.548 255.517,116.111 254.910,115.979 254.800 C 115.847 254.690,115.399 254.015,114.984 253.300 C 114.568 252.585,114.075 252.000,113.888 252.000 C 113.702 252.000,114.313 253.090,115.248 254.422 M175.800 254.102 C 174.920 255.211,174.020 256.316,173.800 256.559 C 173.580 256.801,172.496 258.080,171.390 259.400 C 169.050 262.195,167.804 263.944,169.395 262.200 C 172.467 258.835,177.731 252.396,177.550 252.227 C 177.467 252.150,176.680 252.994,175.800 254.102 M118.042 258.300 C 120.524 261.521,121.070 261.900,119.200 259.105 C 118.650 258.283,118.043 257.608,117.851 257.605 C 117.659 257.602,117.745 257.915,118.042 258.300 M147.681 260.222 C 145.848 262.544,145.725 263.263,147.526 261.125 C 149.525 258.753,150.059 258.000,149.729 258.022 C 149.548 258.035,148.626 259.025,147.681 260.222 M121.200 262.173 C 121.200 262.536,125.976 269.200,126.236 269.200 C 126.428 269.200,125.186 267.144,124.787 266.800 C 124.659 266.690,123.800 265.536,122.877 264.235 C 121.955 262.934,121.200 262.006,121.200 262.173 M143.422 262.900 C 144.188 264.158,144.863 264.290,145.651 263.335 C 146.150 262.730,146.116 262.714,145.283 263.158 C 144.485 263.583,144.261 263.526,143.559 262.723 L 142.753 261.800 143.422 262.900 M163.200 269.232 C 160.670 272.323,158.525 275.064,158.434 275.324 C 158.343 275.584,160.201 273.457,162.564 270.598 C 164.927 267.739,167.205 264.995,167.627 264.500 C 168.049 264.005,168.261 263.603,168.097 263.606 C 167.934 263.609,165.730 266.140,163.200 269.232 M127.200 270.800 C 127.670 271.460,128.142 272.000,128.250 272.000 C 128.357 272.000,128.126 271.460,127.736 270.800 C 127.346 270.140,126.874 269.600,126.687 269.600 C 126.499 269.600,126.730 270.140,127.200 270.800 M128.893 273.200 C 129.168 273.640,129.529 274.000,129.696 274.000 C 129.863 274.000,130.000 274.185,130.000 274.412 C 130.000 274.638,130.703 275.713,131.563 276.801 C 132.423 277.889,133.208 279.008,133.308 279.289 C 133.408 279.570,133.592 279.708,133.717 279.595 C 133.841 279.483,133.281 278.510,132.471 277.433 C 130.829 275.248,129.732 273.650,129.362 272.900 C 129.226 272.625,128.952 272.400,128.754 272.400 C 128.555 272.400,128.618 272.760,128.893 273.200 M155.594 278.300 C 155.590 278.465,155.095 279.168,154.494 279.862 C 153.892 280.556,152.563 282.094,151.540 283.279 C 148.442 286.867,144.432 288.102,140.600 286.648 C 140.114 286.464,140.193 286.586,140.800 286.958 C 143.523 288.629,148.091 287.457,151.031 284.333 C 153.937 281.246,156.509 278.000,156.049 278.000 C 155.802 278.000,155.597 278.135,155.594 278.300 M136.000 282.800 C 136.470 283.460,136.944 284.000,137.054 284.000 C 137.164 284.000,136.870 283.460,136.400 282.800 C 135.930 282.140,135.456 281.600,135.346 281.600 C 135.236 281.600,135.530 282.140,136.000 282.800 M137.200 284.573 C 137.200 284.668,137.785 285.143,138.500 285.629 L 139.800 286.512 138.717 285.456 C 137.701 284.464,137.200 284.173,137.200 284.573 " stroke="none" fill="#88c4a4" fill-rule="evenodd"></path><path id="path4" d="M291.107 91.490 C 291.826 91.579,292.906 91.577,293.507 91.486 C 294.108 91.395,293.520 91.322,292.200 91.324 C 290.880 91.326,290.388 91.401,291.107 91.490 " stroke="none" fill="#74bc94" fill-rule="evenodd"></path></g></svg>